<?xml version="1.0" encoding="UTF-8"?>
<svg version="1.1" xmlns="http://www.w3.org/2000/svg" width="500" height="500">
<path d="M0 0 C2.71894003 2.63654791 3.90445994 4.69668265 4.36328125 8.48046875 C4.39100884 14.88554102 3.61292226 20.11257666 1.0625 26 C0.670625 26.9075 0.27875 27.815 -0.125 28.75 C-8.04417327 38.58069785 -23.17086989 40.45651347 -34.9375 42 C-41.42593214 42.65338354 -47.93350062 43.0964334 -54.4375 43.5625 C-57.02643982 43.75028251 -59.6152222 43.93970692 -62.20373535 44.13328552 C-63.80170081 44.25260004 -65.39992278 44.36854222 -66.99841309 44.48060608 C-70.41929461 44.73432735 -73.62871998 45.10477288 -76.9375 46 C-76.9375 45.34 -76.9375 44.68 -76.9375 44 C-77.5975 44 -78.2575 44 -78.9375 44 C-80.47625539 38.17471174 -79.98324481 35.46620497 -76.9453125 30.20703125 C-76.38730957 29.22839111 -75.82930664 28.24975098 -75.25439453 27.24145508 C-74.60253174 26.13193481 -74.60253174 26.13193481 -73.9375 25 C-112.4097852 29.90642718 -147.64203222 43.07179727 -180.8125 63.25 C-181.9581543 63.9457312 -181.9581543 63.9457312 -183.12695312 64.65551758 C-189.26679452 68.44924594 -194.93177299 72.6531787 -200.53125 77.19921875 C-202.9375 79 -202.9375 79 -204.9375 79 C-204.9375 79.66 -204.9375 80.32 -204.9375 81 C-205.576875 81.103125 -206.21625 81.20625 -206.875 81.3125 C-207.555625 81.539375 -208.23625 81.76625 -208.9375 82 C-209.4325 83.485 -209.4325 83.485 -209.9375 85 C-211.609375 86.61328125 -211.609375 86.61328125 -213.6875 88.3125 C-220.81150157 94.09609915 -220.81150157 94.09609915 -223.6875 102.5 C-223.45292184 106.00107906 -222.75561524 107.78933356 -220.1875 110.1875 C-202.79818059 122.77736725 -179.67409934 126.59706368 -159.33300781 131.94824219 C-155.80421745 132.87797764 -152.27710241 133.81388511 -148.75 134.75 C-147.13001099 135.17224854 -147.13001099 135.17224854 -145.47729492 135.60302734 C-140.05138846 137.0442636 -135.04756047 138.6869591 -129.9375 141 C-127.73402336 141.76415104 -125.52555304 142.51404325 -123.3125 143.25 C-101.81981202 150.88376655 -81.67813945 164.20579405 -70.125 184.125 C-65.44599792 195.45311031 -65.5430588 207.57445289 -69.9375 219 C-74.17284044 228.50598631 -78.43156655 237.62054991 -86.9375 244 C-87.72125 244.78375 -88.505 245.5675 -89.3125 246.375 C-91.37140751 248.43390751 -93.44139964 250.39111252 -95.625 252.3125 C-96.20636719 252.82425781 -96.78773438 253.33601563 -97.38671875 253.86328125 C-98.9375 255 -98.9375 255 -100.9375 255 C-100.9375 255.66 -100.9375 256.32 -100.9375 257 C-103.26071715 258.64243209 -105.57331717 260.14869632 -108 261.625 C-108.72517822 262.07012939 -109.45035645 262.51525879 -110.19750977 262.97387695 C-122.09299594 270.20264258 -134.14794183 276.1784059 -147.10302734 281.27001953 C-148.64720965 281.88448654 -150.17879254 282.53048186 -151.70703125 283.18359375 C-158.26917966 285.98039664 -165.0562925 287.76436727 -171.9609375 289.49560547 C-173.88594231 289.98684311 -175.8025617 290.51057991 -177.71875 291.03515625 C-188.67891988 293.96455125 -199.67756448 295.67142351 -210.9375 297 C-211.81728516 297.10586426 -212.69707031 297.21172852 -213.60351562 297.32080078 C-239.89143182 300.36329438 -272.74669155 303.5963973 -296.9375 291 C-297.82953125 290.54625 -298.7215625 290.0925 -299.640625 289.625 C-309.01265678 284.46196453 -315.24731813 277.07526835 -318.9375 267 C-320.74761638 259.40460968 -320.38342614 251.51948741 -316.62890625 244.58203125 C-312.24709449 238.30878995 -306.78166984 235.17805565 -299.9375 232 C-299.2775 231.67 -298.6175 231.34 -297.9375 231 C-295.93789988 230.960008 -293.93702758 230.95653201 -291.9375 231 C-290.8125 232.75 -290.8125 232.75 -289.9375 235 C-290.57020867 236.34977849 -291.23812468 237.68352881 -291.9375 239 C-291.93280794 241.10231241 -291.93280794 241.10231241 -290.9375 243 C-287.79213812 245.77444656 -284.46963999 247.10984539 -280.5625 248.5625 C-279.46164062 248.97628906 -278.36078125 249.39007813 -277.2265625 249.81640625 C-276.14117187 250.20699219 -275.05578125 250.59757812 -273.9375 251 C-273.01710938 251.33902344 -272.09671875 251.67804688 -271.1484375 252.02734375 C-261.25632333 255.02386009 -251.87115133 255.31225148 -241.60693359 255.26074219 C-239.07495001 255.25005256 -236.54368037 255.26066718 -234.01171875 255.2734375 C-225.12967884 255.28155338 -216.64965067 254.93163775 -207.9375 253 C-206.8853833 252.77304443 -206.8853833 252.77304443 -205.81201172 252.54150391 C-201.88627044 251.64696781 -197.99398089 250.59865764 -194.10107422 249.57080078 C-192.6376691 249.18472076 -191.17310754 248.80300199 -189.70751953 248.42529297 C-163.75363567 241.72012021 -138.51160915 230.44812047 -117.9375 213 C-117.6075 212.34 -117.2775 211.68 -116.9375 211 C-116.2775 211 -115.6175 211 -114.9375 211 C-113.12996202 207.02341645 -112.17602146 203.37289352 -111.9375 199 C-113.26903266 196.69495956 -113.26903266 196.69495956 -114.9375 195 C-114.9375 194.34 -114.9375 193.68 -114.9375 193 C-115.64519531 192.72671875 -116.35289062 192.4534375 -117.08203125 192.171875 C-119.995496 190.97619863 -122.79311494 189.62707352 -125.625 188.25 C-145.69581266 179.00892349 -167.64209838 174.38028982 -189.0625 169.375 C-198.13490844 167.25453606 -207.03715007 164.74850184 -215.9375 162 C-216.94425781 161.71898437 -217.95101562 161.43796875 -218.98828125 161.1484375 C-232.81461382 157.05599605 -247.86580194 149.50172562 -257.9375 139 C-257.9375 138.34 -257.9375 137.68 -257.9375 137 C-258.5975 137 -259.2575 137 -259.9375 137 C-267.67906967 128.44003582 -270.73034089 116.70740869 -270.3203125 105.390625 C-268.52120772 89.45569694 -261.46255997 75.92202248 -250.9375 64 C-249.60805657 63.32560961 -248.27531859 62.65761969 -246.9375 62 C-246.25393941 60.67524827 -245.58963539 59.34050052 -244.9375 58 C-236.25031333 48.9858762 -225.95314637 40.93150189 -214.9375 35 C-212.85929593 33.66622724 -210.79155821 32.31909465 -208.734375 30.953125 C-206.9375 30 -206.9375 30 -203.9375 30 C-203.9375 29.34 -203.9375 28.68 -203.9375 28 C-200.33421657 26.26898863 -196.72970841 24.54054175 -193.125 22.8125 C-192.12017578 22.32974609 -191.11535156 21.84699219 -190.08007812 21.34960938 C-179.96816527 16.50499518 -169.86955059 11.83491245 -159.375 7.875 C-158.50681641 7.54113281 -157.63863281 7.20726563 -156.74414062 6.86328125 C-151.61155355 4.91419755 -146.46037928 3.18917285 -141.18530273 1.66650391 C-138.95325844 1.00467259 -136.75996749 0.26810054 -134.5625 -0.5 C-129.10192903 -2.33604564 -123.538186 -3.66498972 -117.9375 -5 C-116.55076569 -5.33587328 -115.16404782 -5.67181439 -113.77734375 -6.0078125 C-112.31001545 -6.3598739 -110.84256802 -6.71143919 -109.375 -7.0625 C-108.36759766 -7.30601196 -108.36759766 -7.30601196 -107.33984375 -7.55444336 C-75.40963199 -15.11100429 -28.74858132 -19.57350217 0 0 Z " fill="#FD3131" transform="translate(326.9375,33)"/>
<path d="M0 0 C1.86519287 -0.02743286 1.86519287 -0.02743286 3.76806641 -0.05541992 C14.00659628 0.01245302 24.29673046 1.76810871 32.375 8.5 C32.375 9.16 32.375 9.82 32.375 10.5 C33.2103125 10.8403125 33.2103125 10.8403125 34.0625 11.1875 C40.55220131 14.87084399 45.08876908 21.49412499 47.375 28.5 C49.35194832 49.69472504 38.82735647 66.16561393 26.375 82.5 C25.715 83.49 25.055 84.48 24.375 85.5 C23.715 85.5 23.055 85.5 22.375 85.5 C21.97087891 86.37978516 21.97087891 86.37978516 21.55859375 87.27734375 C16.31013007 97.13336961 5.25310437 106.89833265 -3.625 113.5 C-4.285 113.5 -4.945 113.5 -5.625 113.5 C-5.625 114.16 -5.625 114.82 -5.625 115.5 C-9.08314931 118.43331584 -12.8989213 120.91935716 -16.625 123.5 C-17.21361816 123.91411133 -17.80223633 124.32822266 -18.40869141 124.75488281 C-32.46863303 134.62348342 -46.7928097 143.42250236 -64.625 141.5 C-70.77809828 139.53295933 -75.38225745 136.38558233 -79.625 131.5 C-80.181875 131.04625 -80.73875 130.5925 -81.3125 130.125 C-83.48446762 127.43589723 -84.39322312 124.89345117 -84.625 121.5 C-83.70067622 115.32420835 -82.22953805 109.66650453 -78.625 104.5 C-76.4375 103.6875 -76.4375 103.6875 -74.625 103.5 C-74.625 104.82 -74.625 106.14 -74.625 107.5 C-70.335 107.5 -66.045 107.5 -61.625 107.5 C-61.625 106.84 -61.625 106.18 -61.625 105.5 C-60.9959375 105.20867187 -60.366875 104.91734375 -59.71875 104.6171875 C-54.41716665 102.07817619 -49.78204057 99.34906784 -45.21875 95.63671875 C-43.625 94.5 -43.625 94.5 -41.625 94.5 C-41.625 93.84 -41.625 93.18 -41.625 92.5 C-40.296875 91.37890625 -40.296875 91.37890625 -38.375 90.0625 C-30.97057203 84.68704339 -23.84822738 78.3647742 -18 71.3125 C-17.21625 70.384375 -16.4325 69.45625 -15.625 68.5 C-14.965 68.5 -14.305 68.5 -13.625 68.5 C-13.625 67.84 -13.625 67.18 -13.625 66.5 C-12.965 66.5 -12.305 66.5 -11.625 66.5 C-11.3671875 65.95859375 -11.109375 65.4171875 -10.84375 64.859375 C-9.40033706 62.06507559 -7.79061466 59.41780654 -6.125 56.75 C-5.5165625 55.76515625 -4.908125 54.7803125 -4.28125 53.765625 C-3.7346875 53.01796875 -3.188125 52.2703125 -2.625 51.5 C-1.965 51.5 -1.305 51.5 -0.625 51.5 C0.2191938 47.52022924 0.82187265 43.52992782 1.375 39.5 C-4.02314886 35.9012341 -11.38939189 37.51849416 -17.625 38.5 C-24.40441614 40.03476361 -31.01103377 42.30002778 -37.33984375 45.1640625 C-40.625 46.5 -40.625 46.5 -44.625 46.5 C-44.625 47.16 -44.625 47.82 -44.625 48.5 C-45.15641602 48.74008789 -45.68783203 48.98017578 -46.23535156 49.22753906 C-57.70664779 54.44980368 -68.69963801 60.06631993 -79.40136719 66.73925781 C-80.1905957 67.23006836 -80.97982422 67.72087891 -81.79296875 68.2265625 C-82.83360474 68.88519287 -82.83360474 68.88519287 -83.89526367 69.55712891 C-85.625 70.5 -85.625 70.5 -87.625 70.5 C-87.625 71.16 -87.625 71.82 -87.625 72.5 C-89.49180868 73.88249511 -91.42049792 75.18203634 -93.375 76.4375 C-97.71764947 79.22555107 -97.71764947 79.22555107 -101.890625 82.25390625 C-103.625 83.5 -103.625 83.5 -105.625 83.5 C-105.625 84.16 -105.625 84.82 -105.625 85.5 C-111.03676471 89.5 -111.03676471 89.5 -113.625 89.5 C-113.625 90.16 -113.625 90.82 -113.625 91.5 C-114.285 91.5 -114.945 91.5 -115.625 91.5 C-115.625 92.16 -115.625 92.82 -115.625 93.5 C-117.31774284 95.06432787 -119.08069852 96.55328572 -120.875 98 C-121.84953125 98.7940625 -122.8240625 99.588125 -123.828125 100.40625 C-126.625 102.5 -126.625 102.5 -128.921875 103.59375 C-130.98859766 104.4425407 -130.98859766 104.4425407 -131.625 107.5 C-132.285 107.5 -132.945 107.5 -133.625 107.5 C-133.625 108.16 -133.625 108.82 -133.625 109.5 C-135.12109375 110.9375 -135.12109375 110.9375 -137.0625 112.5 C-139.77688238 114.64525044 -139.77688238 114.64525044 -141.625 117.5 C-142.285 117.5 -142.945 117.5 -143.625 117.5 C-143.625 118.16 -143.625 118.82 -143.625 119.5 C-144.285 119.5 -144.945 119.5 -145.625 119.5 C-145.8621875 120.05816406 -146.099375 120.61632812 -146.34375 121.19140625 C-147.92252123 124.03608246 -149.88323657 126.07868247 -152.125 128.4375 C-157.72282718 134.49509109 -162.69987338 140.89017376 -167.625 147.5 C-168.36105469 148.47453125 -169.09710938 149.4490625 -169.85546875 150.453125 C-173.92413383 155.91872387 -177.51097238 161.43662892 -180.625 167.5 C-181.285 167.5 -181.945 167.5 -182.625 167.5 C-182.83125 168.28375 -183.0375 169.0675 -183.25 169.875 C-184.38659496 172.87147762 -185.50063873 175.0193621 -187.1875 177.6875 C-201.53042289 201.0079003 -215.05323493 232.94231682 -208.89453125 260.8046875 C-206.21337778 268.18059541 -201.34348555 272.58088343 -194.625 276.5 C-169.17476032 283.32590798 -142.16846034 268.83763753 -120.72265625 256.73046875 C-117.34763668 254.75070867 -114.01493955 252.70157434 -110.69140625 250.63671875 C-108.625 249.5 -108.625 249.5 -106.625 249.5 C-106.625 248.84 -106.625 248.18 -106.625 247.5 C-104.42539267 245.91798643 -102.22291693 244.44874163 -99.9375 243 C-89.29450801 236.08104495 -79.45674549 228.31515211 -69.76953125 220.1171875 C-67.625 218.5 -67.625 218.5 -65.625 218.5 C-65.625 217.84 -65.625 217.18 -65.625 216.5 C-64.305 216.17 -62.985 215.84 -61.625 215.5 C-61.625 214.84 -61.625 214.18 -61.625 213.5 C-60.965 213.5 -60.305 213.5 -59.625 213.5 C-59.295 212.51 -58.965 211.52 -58.625 210.5 C-56.88459466 208.96084675 -55.0835609 207.48940501 -53.25 206.0625 C-49.82853058 203.39483717 -47.19942808 200.96679119 -44.625 197.5 C-43.965 197.5 -43.305 197.5 -42.625 197.5 C-42.356875 196.9225 -42.08875 196.345 -41.8125 195.75 C-40.59570811 193.44449957 -39.32166121 191.47943808 -37.625 189.5 C-36.965 189.5 -36.305 189.5 -35.625 189.5 C-35.295 188.18 -34.965 186.86 -34.625 185.5 C-31.75 185.6875 -31.75 185.6875 -28.625 186.5 C-26.00446411 190.87323197 -26.4450506 195.28492848 -26.75 200.1875 C-26.80003174 201.01822021 -26.85006348 201.84894043 -26.90161133 202.70483398 C-28.23988222 221.07785265 -32.75521319 233.7850076 -45.55078125 247.25 C-47.64950763 249.31782003 -47.64950763 249.31782003 -48.625 251.5 C-49.285 251.5 -49.945 251.5 -50.625 251.5 C-50.87507812 252.08523438 -51.12515625 252.67046875 -51.3828125 253.2734375 C-52.78976141 255.79532706 -54.31212804 257.25086062 -56.5 259.125 C-57.51707031 260.01058594 -57.51707031 260.01058594 -58.5546875 260.9140625 C-60.51166469 262.41318087 -62.38548537 263.48569068 -64.625 264.5 C-64.625 265.16 -64.625 265.82 -64.625 266.5 C-66.3046875 268.0078125 -66.3046875 268.0078125 -68.5 269.625 C-69.21929687 270.16382813 -69.93859375 270.70265625 -70.6796875 271.2578125 C-72.625 272.5 -72.625 272.5 -74.625 272.5 C-74.625 273.16 -74.625 273.82 -74.625 274.5 C-79.00961538 277.5 -79.00961538 277.5 -81.625 277.5 C-81.625 278.16 -81.625 278.82 -81.625 279.5 C-83.6796875 281.015625 -83.6796875 281.015625 -86.5 282.75 C-87.51835937 283.37648438 -88.53671875 284.00296875 -89.5859375 284.6484375 C-91.09027344 285.56496094 -91.09027344 285.56496094 -92.625 286.5 C-93.38039063 286.98726563 -94.13578125 287.47453125 -94.9140625 287.9765625 C-121.23252562 304.62322292 -152.44788322 314.62461787 -183.5625 314.875 C-185.08870972 314.89578613 -185.08870972 314.89578613 -186.64575195 314.91699219 C-202.21341294 314.82091892 -216.30108401 309.34859112 -227.625 298.5 C-227.625 297.84 -227.625 297.18 -227.625 296.5 C-228.285 296.5 -228.945 296.5 -229.625 296.5 C-229.625 295.84 -229.625 295.18 -229.625 294.5 C-230.285 294.5 -230.945 294.5 -231.625 294.5 C-231.625 293.84 -231.625 293.18 -231.625 292.5 C-232.285 292.5 -232.945 292.5 -233.625 292.5 C-246.37396779 276.74538165 -252.32142142 258.91178032 -250.625 238.5 C-247.41358524 208.64067556 -238.10910544 181.70642345 -223.625 155.5 C-223.22337646 154.76096436 -222.82175293 154.02192871 -222.40795898 153.26049805 C-219.44972667 147.85221401 -216.27541901 142.6192219 -212.9375 137.4375 C-212.45216797 136.66728516 -211.96683594 135.89707031 -211.46679688 135.10351562 C-210.99951172 134.37712891 -210.53222656 133.65074219 -210.05078125 132.90234375 C-209.63223877 132.24741943 -209.21369629 131.59249512 -208.7824707 130.91772461 C-208.40050537 130.44987549 -208.01854004 129.98202637 -207.625 129.5 C-206.965 129.5 -206.305 129.5 -205.625 129.5 C-205.37492187 128.778125 -205.12484375 128.05625 -204.8671875 127.3125 C-203.51361341 124.24780396 -201.88339963 122.07618069 -199.75 119.5 C-199.07195312 118.675 -198.39390625 117.85 -197.6953125 117 C-197.01210937 116.175 -196.32890625 115.35 -195.625 114.5 C-192.85047515 111.17773465 -192.85047515 111.17773465 -190.625 107.5 C-189.965 107.5 -189.305 107.5 -188.625 107.5 C-188.625 106.84 -188.625 106.18 -188.625 105.5 C-187.965 105.5 -187.305 105.5 -186.625 105.5 C-186.3671875 104.92765625 -186.109375 104.3553125 -185.84375 103.765625 C-184.51134058 101.28871005 -182.97443882 99.3658834 -181.125 97.25 C-180.5165625 96.54359375 -179.908125 95.8371875 -179.28125 95.109375 C-177.625 93.5 -177.625 93.5 -175.625 93.5 C-175.625 92.84 -175.625 92.18 -175.625 91.5 C-174.00397032 89.78891311 -172.32996537 88.12746694 -170.625 86.5 C-169.903125 85.736875 -169.18125 84.97375 -168.4375 84.1875 C-166.625 82.5 -166.625 82.5 -164.625 82.5 C-164.625 81.84 -164.625 81.18 -164.625 80.5 C-163.296875 79.16015625 -163.296875 79.16015625 -161.375 77.5625 C-158.30017224 74.95864057 -155.31380506 72.29160659 -152.37744141 69.53222656 C-135.26045281 53.5 -135.26045281 53.5 -130.625 53.5 C-130.625 52.84 -130.625 52.18 -130.625 51.5 C-129.18798828 50.26318359 -129.18798828 50.26318359 -127.1953125 48.8984375 C-126.48246094 48.40859375 -125.76960938 47.91875 -125.03515625 47.4140625 C-124.28105469 46.90617187 -123.52695312 46.39828125 -122.75 45.875 C-122.00363281 45.359375 -121.25726563 44.84375 -120.48828125 44.3125 C-114.890563 40.5 -114.890563 40.5 -112.625 40.5 C-112.625 39.84 -112.625 39.18 -112.625 38.5 C-112.13773438 38.231875 -111.65046875 37.96375 -111.1484375 37.6875 C-106.94044749 35.36162916 -102.75603262 33.0016891 -98.59545898 30.59179688 C-82.79971784 21.47296288 -66.19751514 13.32676553 -48.58203125 8.38671875 C-46.26736543 7.69262477 -44.10428809 6.91654815 -41.86328125 6.03125 C-28.55111577 0.98797825 -14.09533722 0.10711272 0 0 Z " fill="#747474" transform="translate(449.625,153.5)"/>
<path d="M0 0 C0 0.99 0 1.98 0 3 C-0.66 3 -1.32 3 -2 3 C-2.33 3.99 -2.66 4.98 -3 6 C-5.31 6.33 -7.62 6.66 -10 7 C-10 7.66 -10 8.32 -10 9 C-14.78304118 12.43781085 -20.41234656 14.1190967 -25.9375 16 C-26.618125 16.33 -27.29875 16.66 -28 17 C-28.33 17.99 -28.66 18.98 -29 20 C-30.65 20 -32.3 20 -34 20 C-34.33 20.66 -34.66 21.32 -35 22 C-32.69 22 -30.38 22 -28 22 C-30.6855594 24.6855594 -33.37621328 25.06049974 -37 26 C-38.5 24.625 -38.5 24.625 -40 23 C-40 22.34 -40 21.68 -40 21 C-43.63 21.33 -47.26 21.66 -51 22 C-47.52706372 19.68470914 -44.09666691 18.82352934 -40.125 17.75 C-32.34147422 15.54503752 -25.23541372 12.64300551 -18 9 C-16.57063177 8.29102262 -15.14092523 7.58272703 -13.7109375 6.875 C-9.79892446 4.933022 -5.89791206 2.97011478 -2 1 C-1.34 0.67 -0.68 0.34 0 0 Z " fill="#F3413E" transform="translate(190,260)"/>
<path d="M0 0 C-4.56853118 3.82768829 -8.01594026 4.44899517 -13.90234375 4.7890625 C-17.34657399 5.02360025 -20.71210158 5.4830077 -24.125 6 C-25.22070312 6.165 -26.31640625 6.33 -27.4453125 6.5 C-29.92452853 6.73848734 -29.92452853 6.73848734 -31 8 C-33.53519278 8.10102648 -36.04252339 8.1397044 -38.578125 8.1328125 C-39.72350739 8.13424759 -39.72350739 8.13424759 -40.89202881 8.13571167 C-42.51281822 8.13639373 -44.13361033 8.13453763 -45.75439453 8.13037109 C-48.22564931 8.12505241 -50.69671989 8.13029992 -53.16796875 8.13671875 C-54.7421879 8.1360574 -56.31640693 8.13477506 -57.890625 8.1328125 C-58.99558319 8.13584885 -58.99558319 8.13584885 -60.12286377 8.13894653 C-63.89270099 8.12190052 -67.31711014 7.74625638 -71 7 C-71.99 7.495 -71.99 7.495 -73 8 C-73 7.34 -73 6.68 -73 6 C-74.65 6 -76.3 6 -78 6 C-78.33 5.34 -78.66 4.68 -79 4 C-71.25 3.875 -71.25 3.875 -69 5 C-66.29601839 5.11143296 -63.61867666 5.16412603 -60.9140625 5.16796875 C-60.10190277 5.17129715 -59.28974304 5.17462555 -58.45297241 5.17805481 C-56.72630377 5.18312662 -54.9996253 5.18546306 -53.27294922 5.18530273 C-50.67007433 5.1874626 -48.06764207 5.20554035 -45.46484375 5.22460938 C-32.55396942 5.26967283 -20.80849277 3.69604653 -8.36523438 0.23632812 C-3.31355643 -1.10451881 -3.31355643 -1.10451881 0 0 Z " fill="#E05151" transform="translate(138,283)"/>
<path d="M0 0 C0.99 0.33 1.98 0.66 3 1 C4.39439664 1.06665376 5.79169875 1.08538199 7.1875 1.0625 C8.445625 1.041875 9.70375 1.02125 11 1 C10 3 10 3 7.18359375 4.1484375 C-25.95859873 15 -25.95859873 15 -40 15 C-39.67 14.01 -39.34 13.02 -39 12 C-36.36 12 -33.72 12 -31 12 C-31 11.34 -31 10.68 -31 10 C-26.545 9.505 -26.545 9.505 -22 9 C-22 8.67 -22 8.34 -22 8 C-18.535 7.505 -18.535 7.505 -15 7 C-15 6.67 -15 6.34 -15 6 C-12.36 5.67 -9.72 5.34 -7 5 C-6.67 4.01 -6.34 3.02 -6 2 C-4.02 2.33 -2.04 2.66 0 3 C0 2.01 0 1.02 0 0 Z " fill="#E94F4F" transform="translate(167,313)"/>
<path d="M0 0 C2.64 0.33 5.28 0.66 8 1 C8 1.66 8 2.32 8 3 C8.763125 2.773125 9.52625 2.54625 10.3125 2.3125 C13 2 13 2 14.8125 3.3125 C16 5 16 5 16 7 C19.465 6.505 19.465 6.505 23 6 C23 6.66 23 7.32 23 8 C25.97 8.495 25.97 8.495 29 9 C29 9.66 29 10.32 29 11 C30.98 10.67 32.96 10.34 35 10 C35 10.66 35 11.32 35 12 C36.32 11.67 37.64 11.34 39 11 C39.226875 11.639375 39.45375 12.27875 39.6875 12.9375 C40.81636577 15.21930049 40.81636577 15.21930049 43.25 15.625 C44.1575 15.74875 45.065 15.8725 46 16 C48.00744615 16.64389782 50.00945124 17.30562253 52 18 C49.46771913 19.26614044 48.63337519 18.85134894 45.921875 18.1796875 C45.0978418 17.97690186 44.27380859 17.77411621 43.42480469 17.56518555 C42.10077637 17.2235437 42.10077637 17.2235437 40.75 16.875 C39.39116699 16.52659058 39.39116699 16.52659058 38.00488281 16.17114258 C24.51279023 12.63550648 12.33313206 7.45487301 0 1 C0 0.67 0 0.34 0 0 Z " fill="#EC5E5F" transform="translate(83,182)"/>
<path d="M0 0 C0.10629702 3.48122739 -0.01170258 6.64609706 -1 10 C-4.19137514 12.96768062 -7.73412523 13.89451044 -12 14.25 C-12.66 14.1675 -13.32 14.085 -14 14 C-14.2475 14.639375 -14.495 15.27875 -14.75 15.9375 C-16 18 -16 18 -18.125 18.75 C-19.053125 18.87375 -19.053125 18.87375 -20 19 C-20 19.66 -20 20.32 -20 21 C-20.66 20.67 -21.32 20.34 -22 20 C-20.38405168 17.95880212 -18.7143618 15.95927063 -17 14 C-16.34 14 -15.68 14 -15 14 C-14.7834375 13.44828125 -14.566875 12.8965625 -14.34375 12.328125 C-12.53504366 9.19443611 -10.18448326 7.16603494 -7.5 4.75 C-7.00113281 4.29109375 -6.50226563 3.8321875 -5.98828125 3.359375 C-2.25897507 0 -2.25897507 0 0 0 Z " fill="#FB332F" transform="translate(95,81)"/>
<path d="M0 0 C8.33958192 1.67298604 16.48270945 3.61780165 24.64453125 6.015625 C29.41076617 7.41386854 34.20407071 8.70803538 39 10 C35.99112219 11.58158962 33.36327963 12.43945339 30 13 C30.33 12.01 30.66 11.02 31 10 C27.7 10 24.4 10 21 10 C21 9.34 21 8.68 21 8 C19.906875 8.33 18.81375 8.66 17.6875 9 C14.51786472 9.85956211 12.21813952 10 9 10 C9.33 8.02 9.66 6.04 10 4 C6.7 3.34 3.4 2.68 0 2 C0 1.34 0 0.68 0 0 Z " fill="#EE4B4A" transform="translate(136,157)"/>
<path d="M0 0 C1.125 1.75 1.125 1.75 2 4 C1.36729133 5.34977849 0.69937532 6.68352881 0 8 C0.23744036 11.79904575 2.26394754 13.52872681 5 16 C4.01 16.33 3.02 16.66 2 17 C1.34 15.68 0.68 14.36 0 13 C-0.99 13 -1.98 13 -3 13 C-5.125 7.375 -5.125 7.375 -4 4 C-4.33 4.33 -4.66 4.66 -5 5 C-9.95346223 6.76123102 -14.84812072 7.9982457 -20 9 C-15.32947894 3.26799688 -7.46151536 -0.98177834 0 0 Z " fill="#F24244" transform="translate(35,264)"/>
<path d="M0 0 C0 0.33 0 0.66 0 1 C-20.13 1 -40.26 1 -61 1 C-61 0.67 -61 0.34 -61 0 C-40.47206793 -1.8701294 -20.49326497 -2.44914403 0 0 Z " fill="#E25C5A" transform="translate(298,22)"/>
<path d="M0 0 C1 2 1 2 0.4765625 3.84765625 C0.19554687 4.57855469 -0.08546875 5.30945313 -0.375 6.0625 C-2.03811593 10.74048817 -2.60790452 15.05959696 -3 20 C-2.34 19.67 -1.68 19.34 -1 19 C-0.34 20.98 0.32 22.96 1 25 C-0.32 25.33 -1.64 25.66 -3 26 C-3 27.65 -3 29.3 -3 31 C-2.34 31 -1.68 31 -1 31 C-0.67 32.32 -0.34 33.64 0 35 C-3 34 -3 34 -4.625 31.0625 C-7.63220891 23.26603246 -7.73951691 14.88928186 -5 7 C-3.51583781 4.40735418 -1.91351591 2.31636136 0 0 Z " fill="#F43333" transform="translate(14,273)"/>
<path d="M0 0 C-2.41954948 3.75030169 -2.41954948 3.75030169 -4.734375 4.74609375 C-7.9181889 5.10290048 -11.04717845 5.09215576 -14.25 5.0625 C-15.51328125 5.05347656 -16.7765625 5.04445313 -18.078125 5.03515625 C-19.04234375 5.02355469 -20.0065625 5.01195312 -21 5 C-21 5.66 -21 6.32 -21 7 C-22.32 7 -23.64 7 -25 7 C-25.33 6.34 -25.66 5.68 -26 5 C-27.98 5 -29.96 5 -32 5 C-29.17235447 2.17235447 -25.9926813 2.02124077 -22.1875 1.375 C-21.05356812 1.17716919 -21.05356812 1.17716919 -19.89672852 0.9753418 C-13.21437575 -0.11317034 -6.77073208 -0.31793003 0 0 Z " fill="#F1423F" transform="translate(246,23)"/>
<path d="M0 0 C6.27 0 12.54 0 19 0 C18.67 0.99 18.34 1.98 18 3 C18 2.34 18 1.68 18 1 C13.87330962 1.67116247 9.74738152 2.34679156 5.62207031 3.02636719 C4.22187556 3.25640378 2.82148799 3.48527015 1.42089844 3.71289062 C-5.79038439 4.88562421 -12.94921442 6.05558233 -20 8 C-19.34 6.02 -18.68 4.04 -18 2 C-12.25 0.875 -12.25 0.875 -10 2 C-8.29297265 2.06996014 -6.58331997 2.08440154 -4.875 2.0625 C-3.96492188 2.05347656 -3.05484375 2.04445312 -2.1171875 2.03515625 C-1.41851562 2.02355469 -0.71984375 2.01195312 0 2 C0 1.34 0 0.68 0 0 Z " fill="#F3383A" transform="translate(235,57)"/>
<path d="M0 0 C0.33 0.99 0.66 1.98 1 3 C1.99 3 2.98 3 4 3 C2.87314977 6.38055068 1.94615375 7.1079382 -0.75 9.3125 C-7.11484086 14.26821058 -7.11484086 14.26821058 -10.3359375 21.3046875 C-10.41779612 25.80754393 -10.41779612 25.80754393 -9 30 C-9.99 29.67 -10.98 29.34 -12 29 C-13.21693876 26.56612247 -13.31959896 24.58161154 -13.5625 21.875 C-13.64628906 20.96492188 -13.73007813 20.05484375 -13.81640625 19.1171875 C-13.87699219 18.41851562 -13.93757813 17.71984375 -14 17 C-13.01 16.67 -12.02 16.34 -11 16 C-9.28432339 12.49705129 -9.28432339 12.49705129 -8 9 C-7.01 9 -6.02 9 -5 9 C-5 8.34 -5 7.68 -5 7 C-4.01 7 -3.02 7 -2 7 C-1.855625 6.030625 -1.71125 5.06125 -1.5625 4.0625 C-1 1 -1 1 0 0 Z " fill="#EF5152" transform="translate(114,112)"/>
<path d="M0 0 C0.495 1.98 0.495 1.98 1 4 C-2.16043678 5.05347893 -4.75682228 5.01739488 -8.05859375 4.96875 C-10.16501969 5.00265625 -12.00101667 5.33367222 -14 6 C-14 6.66 -14 7.32 -14 8 C-17.50775016 10.02067403 -20.98860214 10.75754857 -24.9375 11.5625 C-26.14277344 11.81128906 -27.34804687 12.06007813 -28.58984375 12.31640625 C-30.27787109 12.65478516 -30.27787109 12.65478516 -32 13 C-33.45599609 13.29197266 -33.45599609 13.29197266 -34.94140625 13.58984375 C-35.62074219 13.72519531 -36.30007812 13.86054687 -37 14 C-34.00120945 11.53536764 -31.17282074 10.13968671 -27.53515625 8.80859375 C-26.48779297 8.42123047 -25.44042969 8.03386719 -24.36132812 7.63476562 C-23.27271484 7.23966797 -22.18410156 6.84457031 -21.0625 6.4375 C-18.90742623 5.64487334 -16.75247394 4.85191631 -14.59765625 4.05859375 C-13.64383057 3.71111084 -12.69000488 3.36362793 -11.70727539 3.00561523 C-9.91986552 2.3416833 -8.14917651 1.63063602 -6.40014648 0.87133789 C-4 0 -4 0 0 0 Z " fill="#E75859" transform="translate(187,35)"/>
<path d="M0 0 C2.66666667 1.33333333 5.33333333 2.66666667 8 4 C8 4.66 8 5.32 8 6 C6.35 5.67 4.7 5.34 3 5 C3 6.65 3 8.3 3 10 C4.32 10.33 5.64 10.66 7 11 C7 11.99 7 12.98 7 14 C7.61875 14.309375 8.2375 14.61875 8.875 14.9375 C10.25 15.625 11.625 16.3125 13 17 C12.67 17.66 12.34 18.32 12 19 C10.01402714 17.5711779 8.03649356 16.13270528 6.0625 14.6875 C5.49853516 14.28337891 4.93457031 13.87925781 4.35351562 13.46289062 C0.11328125 10.33984375 0.11328125 10.33984375 -1 7 C-1.66 7 -2.32 7 -3 7 C-3.66 5.35 -4.32 3.7 -5 2 C-3.68 2 -2.36 2 -1 2 C-0.67 2.33 -0.34 2.66 0 3 C0 2.01 0 1.02 0 0 Z " fill="#F73535" transform="translate(70,163)"/>
<path d="M0 0 C0 0.99 0 1.98 0 3 C-0.66 3 -1.32 3 -2 3 C-2.33 3.99 -2.66 4.98 -3 6 C-5.31 6.33 -7.62 6.66 -10 7 C-10 7.66 -10 8.32 -10 9 C-16.35534921 13.56790725 -23.32977956 15.31515889 -31 16 C-29.68044588 13.36089176 -28.68647939 13.35710616 -25.9375 12.375 C-18.35706807 9.47885813 -11.22026911 5.68185908 -4 2 C-2.66750842 1.33165249 -1.33469944 0.66392742 0 0 Z " fill="#E95654" transform="translate(190,260)"/>
<path d="M0 0 C0.76570313 0.56267578 0.76570313 0.56267578 1.546875 1.13671875 C10.27827427 7.28275689 19.87980191 10.79527061 30 14 C30 14.33 30 14.66 30 15 C25.17639811 15.19294408 21.50353262 14.75747614 17 13 C17 12.34 17 11.68 17 11 C15.35 11 13.7 11 12 11 C11.67 10.01 11.34 9.02 11 8 C8.03 8 5.06 8 2 8 C0 2.25 0 2.25 0 0 Z " fill="#EA6365" transform="translate(105,142)"/>
<path d="M0 0 C1.32 0.66 2.64 1.32 4 2 C3.43603516 2.25168945 2.87207031 2.50337891 2.29101562 2.76269531 C-0.30680657 3.92331121 -2.90340626 5.08663848 -5.5 6.25 C-6.386875 6.64574219 -7.27375 7.04148437 -8.1875 7.44921875 C-13.52666086 9.84398943 -18.78567147 12.34410369 -24 15 C-24 14.01 -24 13.02 -24 12 C-23.01 12 -22.02 12 -21 12 C-20.67 10.68 -20.34 9.36 -20 8 C-18.02 8 -16.04 8 -14 8 C-14 7.34 -14 6.68 -14 6 C-13.01 5.67 -12.02 5.34 -11 5 C-11 4.34 -11 3.68 -11 3 C-8.24921116 2.08307039 -6.64051087 1.89113917 -3.8125 1.9375 C-1.9253125 1.9684375 -1.9253125 1.9684375 0 2 C0 1.34 0 0.68 0 0 Z " fill="#EE5D5D" transform="translate(184,73)"/>
<path d="M0 0 C2.69082872 0.17635452 5.32851446 0.61835921 8 1 C-12.78619154 18 -12.78619154 18 -21 18 C-21 17.01 -21 16.02 -21 15 C-19.68 15 -18.36 15 -17 15 C-17 14.34 -17 13.68 -17 13 C-15.68 13 -14.36 13 -13 13 C-13 12.01 -13 11.02 -13 10 C-11.02 10 -9.04 10 -7 10 C-7 9.01 -7 8.02 -7 7 C-5.35 7 -3.7 7 -2 7 C-2 6.34 -2 5.68 -2 5 C-0.5 3.375 -0.5 3.375 1 2 C0.34 1.67 -0.32 1.34 -1 1 C-0.67 0.67 -0.34 0.34 0 0 Z " fill="#EA6466" transform="translate(218,288)"/>
<path d="M0 0 C1.66362417 0.34820041 3.32995171 0.68404492 5 1 C5 1.66 5 2.32 5 3 C9.64586892 2.51515724 9.64586892 2.51515724 14 1 C15 4 15 4 14 7 C15.65 7 17.3 7 19 7 C17.3828125 8.13671875 17.3828125 8.13671875 15 9 C12.1171875 8.20703125 12.1171875 8.20703125 8.875 6.8125 C3.31687731 4.51388655 -2.20793275 2.6081812 -8 1 C-8 0.67 -8 0.34 -8 0 C-4.71303767 -0.79953138 -3.28976808 -1.09658936 0 0 Z " fill="#EB5151" transform="translate(186,212)"/>
<path d="M0 0 C0.99 0.33 1.98 0.66 3 1 C2.34 2.65 1.68 4.3 1 6 C1.66 6 2.32 6 3 6 C3.12375 6.639375 3.2475 7.27875 3.375 7.9375 C3.58125 8.618125 3.7875 9.29875 4 10 C4.66 10.33 5.32 10.66 6 11 C6 9.02 6 7.04 6 5 C6.99 5.99 7.98 6.98 9 8 C7.7580393 11.43927579 6.44259716 14.25207819 4 17 C3.34 17 2.68 17 2 17 C-0.44149915 11.30316864 -1.43494682 7.19799214 -1 1 C-0.67 0.67 -0.34 0.34 0 0 Z " fill="#FA3234" transform="translate(241,256)"/>
<path d="M0 0 C0 1.32 0 2.64 0 4 C0.66 4.33 1.32 4.66 2 5 C0.68 5 -0.64 5 -2 5 C-2.33 4.67 -2.66 4.34 -3 4 C-3 5.65 -3 7.3 -3 9 C-2.34 9 -1.68 9 -1 9 C-1 9.66 -1 10.32 -1 11 C-1.66 11 -2.32 11 -3 11 C-2.67 11.99 -2.34 12.98 -2 14 C-3.98 14.33 -5.96 14.66 -8 15 C-8.49925898 8.88407749 -7.35277477 5.93055113 -4 1 C-2 0 -2 0 0 0 Z " fill="#777777" transform="translate(375,257)"/>
<path d="M0 0 C2 3 2 3 1.625 5.1875 C1.41875 5.785625 1.2125 6.38375 1 7 C-0.65 7.33 -2.3 7.66 -4 8 C-4 8.66 -4 9.32 -4 10 C-4.66 10 -5.32 10 -6 10 C-6.33 11.65 -6.66 13.3 -7 15 C-12.445 16.485 -12.445 16.485 -18 18 C-14.50637577 14.28802425 -10.82409789 11.29009981 -6.671875 8.33203125 C-4.8678526 7.08643118 -4.8678526 7.08643118 -4 5 C-3.34 5 -2.68 5 -2 5 C-1.34 3.35 -0.68 1.7 0 0 Z " fill="#ED6263" transform="translate(214,239)"/>
<path d="M0 0 C1 2 1 2 0.0625 5.125 C-0.288125 6.07375 -0.63875 7.0225 -1 8 C-1.66 8 -2.32 8 -3 8 C-2.67 10.31 -2.34 12.62 -2 15 C-0.68 14.34 0.64 13.68 2 13 C2 13.33 2 13.66 2 14 C7.94 14.99 7.94 14.99 14 16 C14 16.33 14 16.66 14 17 C12.77023437 17.09087891 12.77023437 17.09087891 11.515625 17.18359375 C9.89914062 17.30927734 9.89914062 17.30927734 8.25 17.4375 C7.18265625 17.51871094 6.1153125 17.59992188 5.015625 17.68359375 C2.56320038 17.94090773 0.36078709 18.31812218 -2 19 C-2 18.34 -2 17.68 -2 17 C-2.66 17 -3.32 17 -4 17 C-5.269698 11.62820076 -5.31303879 8.87525274 -2.5625 4 C-1.72817232 2.65416353 -0.88045938 1.3161192 0 0 Z " fill="#E86E6D" transform="translate(252,60)"/>
<path d="M0 0 C2 1 2 1 3.125 4.25 C5.14994245 13.20153129 4.38016742 22.22313262 2 31 C1.67 31 1.34 31 1 31 C0.67 20.77 0.34 10.54 0 0 Z " fill="#E56E6E" transform="translate(256,219)"/>
<path d="M0 0 C0 3 0 3 -1.4375 4.5625 C-1.953125 5.036875 -2.46875 5.51125 -3 6 C-3.33 6.66 -3.66 7.32 -4 8 C-5.66666667 8.33333333 -7.33333333 8.66666667 -9 9 C-9.33 9.66 -9.66 10.32 -10 11 C-11.32 10.67 -12.64 10.34 -14 10 C-14 10.66 -14 11.32 -14 12 C-16.64 12.66 -19.28 13.32 -22 14 C-20.64815251 11.29630502 -18.62193881 10.56147172 -16.04296875 9.15234375 C-13.20671603 7.55254537 -10.50884565 5.75387351 -7.796875 3.953125 C-6 3 -6 3 -3 3 C-3 2.34 -3 1.68 -3 1 C-2.01 0.67 -1.02 0.34 0 0 Z " fill="#EF5455" transform="translate(126,60)"/>
<path d="M0 0 C0.33 0 0.66 0 1 0 C1.77001757 6.9301581 -0.9101944 11.89763393 -4 18 C-5.56654025 14.96964345 -6.6571055 12.42894502 -7 9 C-6.0625 6.6875 -6.0625 6.6875 -5 5 C-4.01 5 -3.02 5 -2 5 C-2 4.34 -2 3.68 -2 3 C-1.34 3 -0.68 3 0 3 C0 2.01 0 1.02 0 0 Z " fill="#F73337" transform="translate(256,245)"/>
<path d="M0 0 C2.31 0 4.62 0 7 0 C3.07168569 4.17383395 -1.16479983 7.89394426 -6 11 C-6.66 11 -7.32 11 -8 11 C-8 11.66 -8 12.32 -8 13 C-9.32 13.33 -10.64 13.66 -12 14 C-11.67 12.68 -11.34 11.36 -11 10 C-10.01 10 -9.02 10 -8 10 C-8 9.34 -8 8.68 -8 8 C-7.34 8 -6.68 8 -6 8 C-5.67 7.34 -5.34 6.68 -5 6 C-4.34 6.33 -3.68 6.66 -3 7 C-3.33 6.01 -3.66 5.02 -4 4 C-3.01 4 -2.02 4 -1 4 C-0.67 2.68 -0.34 1.36 0 0 Z " fill="#F25C5C" transform="translate(130,101)"/>
<path d="M0 0 C4.31320068 1.75722991 7.9031084 4.8062168 10 9 C10.48302575 15.6724952 9.92870008 21.61118099 8 28 C7.67 28 7.34 28 7 28 C7 20.74 7 13.48 7 6 C5.35 5.67 3.7 5.34 2 5 C1.34 4.34 0.68 3.68 0 3 C0 2.01 0 1.02 0 0 Z " fill="#E36B6C" transform="translate(321,30)"/>
<path d="M0 0 C0.99 0.33 1.98 0.66 3 1 C4.39439664 1.06665376 5.79169875 1.08538199 7.1875 1.0625 C8.445625 1.041875 9.70375 1.02125 11 1 C10 3 10 3 6.7265625 4.2890625 C5.36193566 4.74216125 3.9945918 5.18713794 2.625 5.625 C1.59632813 5.96917969 1.59632813 5.96917969 0.546875 6.3203125 C-2.413635 7.28795001 -4.86608457 8 -8 8 C-7.34 6.02 -6.68 4.04 -6 2 C-3.03 2.495 -3.03 2.495 0 3 C0 2.01 0 1.02 0 0 Z " fill="#F0605F" transform="translate(167,313)"/>
<path d="M0 0 C0.6875 2.0625 0.6875 2.0625 1 4 C-2.43094646 6.16022555 -4.13877962 5.8128885 -8 5 C-8.66 5.66 -9.32 6.32 -10 7 C-12.125 6.625 -12.125 6.625 -14 6 C-12.92456217 5.01216806 -11.83926783 4.03506057 -10.75 3.0625 C-10.14671875 2.51722656 -9.5434375 1.97195312 -8.921875 1.41015625 C-5.64977625 -0.99071295 -3.85544936 -1.28514979 0 0 Z " fill="#F93333" transform="translate(109,74)"/>
<path d="M0 0 C0.33 0.66 0.66 1.32 1 2 C2.32 1.67 3.64 1.34 5 1 C5.3403125 1.9590625 5.3403125 1.9590625 5.6875 2.9375 C6.81636577 5.21930049 6.81636577 5.21930049 9.25 5.625 C10.1575 5.74875 11.065 5.8725 12 6 C14.00744615 6.64389782 16.00945124 7.30562253 18 8 C14.3008707 9.84956465 9.92473369 7.72566545 6.0625 6.75 C5.14275391 6.53214844 4.22300781 6.31429687 3.27539062 6.08984375 C2.39173828 5.86941406 1.50808594 5.64898437 0.59765625 5.421875 C-0.21179443 5.22174805 -1.02124512 5.02162109 -1.85522461 4.81542969 C-4.20610499 3.92164022 -5.3751566 2.89079824 -7 1 C-3.535 0.505 -3.535 0.505 0 0 Z " fill="#EB5453" transform="translate(117,192)"/>
<path d="M0 0 C0.33 0.66 0.66 1.32 1 2 C0.01 2 -0.98 2 -2 2 C-2.33 2.99 -2.66 3.98 -3 5 C-3.66 5 -4.32 5 -5 5 C-5 6.32 -5 7.64 -5 9 C-5.66 9 -6.32 9 -7 9 C-7 8.34 -7 7.68 -7 7 C-8.65 7 -10.3 7 -12 7 C-12 7.99 -12 8.98 -12 10 C-15.3 10.33 -18.6 10.66 -22 11 C-19.01849353 8.76387014 -16.96147936 7.39035886 -13.671875 5.95703125 C-12.47304687 5.43012695 -12.47304687 5.43012695 -11.25 4.89257812 C-10.0125 4.35793945 -10.0125 4.35793945 -8.75 3.8125 C-7.90953125 3.44447266 -7.0690625 3.07644531 -6.203125 2.69726562 C-4.13739852 1.79351029 -2.06970271 0.8946026 0 0 Z " fill="#EB4646" transform="translate(149,49)"/>
<path d="M0 0 C0.99 0.66 1.98 1.32 3 2 C2.01 3.485 2.01 3.485 1 5 C1.33 5.66 1.66 6.32 2 7 C1.01 7 0.02 7 -1 7 C-1 7.66 -1 8.32 -1 9 C-0.34 9.33 0.32 9.66 1 10 C0.34 11.65 -0.32 13.3 -1 15 C-4 14 -4 14 -5.3671875 12.265625 C-6 10 -6 10 -4.8828125 7.421875 C-4.30273438 6.54015625 -3.72265625 5.6584375 -3.125 4.75 C-2.26261719 3.41195313 -2.26261719 3.41195313 -1.3828125 2.046875 C-0.92648438 1.37140625 -0.47015625 0.6959375 0 0 Z " fill="#7C7C7C" transform="translate(230,302)"/>
<path d="M0 0 C0.66 0.33 1.32 0.66 2 1 C2.34342449 2.33076989 2.67619874 3.66431979 3 5 C3.66 5.66 4.32 6.32 5 7 C-3.02078543 5.42910884 -11.01144087 3.72663382 -19 2 C-19 1.67 -19 1.34 -19 1 C-17.71222656 1.01160156 -16.42445313 1.02320313 -15.09765625 1.03515625 C-13.41927228 1.0445327 -11.74088674 1.05363305 -10.0625 1.0625 C-9.21236328 1.07087891 -8.36222656 1.07925781 -7.48632812 1.08789062 C-6.67744141 1.09111328 -5.86855469 1.09433594 -5.03515625 1.09765625 C-4.2862915 1.10289307 -3.53742676 1.10812988 -2.76586914 1.11352539 C-0.97332261 1.19341752 -0.97332261 1.19341752 0 0 Z " fill="#EC5E5D" transform="translate(154,200)"/>
<path d="M0 0 C6.62653548 0.89611512 11.60450867 1.78888482 17 6 C18.3191582 6.69429379 19.64649406 7.37530495 21 8 C15.80526067 9.85099907 11.7318963 7.21015064 7 5 C4.60557454 3.74133742 2.31243076 2.40756655 0 1 C0 0.67 0 0.34 0 0 Z " fill="#EC5D5E" transform="translate(23,319)"/>
<path d="M0 0 C0.33 0 0.66 0 1 0 C1.84681133 5.08086796 2.09038099 9.84828377 2 15 C2.66 15 3.32 15 4 15 C4.33 18.3 4.66 21.6 5 25 C5.99 25 6.98 25 8 25 C8 26.65 8 28.3 8 30 C1.96074431 24.70930751 0.27190594 17.07009201 -0.25 9.2578125 C-0.25 6.16078525 -0.18213593 3.09125149 0 0 Z " fill="#EA8281" transform="translate(57,135)"/>
<path d="M0 0 C0.33 0.66 0.66 1.32 1 2 C-0.59025991 5.10100683 -2.2996944 7.76931277 -5 10 C-5.66 10 -6.32 10 -7 10 C-7.2475 10.639375 -7.495 11.27875 -7.75 11.9375 C-9 14 -9 14 -11.125 14.75 C-12.053125 14.87375 -12.053125 14.87375 -13 15 C-13 15.66 -13 16.32 -13 17 C-13.66 16.67 -14.32 16.34 -15 16 C-13.38405168 13.95880212 -11.7143618 11.95927063 -10 10 C-9.34 10 -8.68 10 -8 10 C-7.79375 9.46375 -7.5875 8.9275 -7.375 8.375 C-5.42003056 4.9982346 -2.81776305 2.69525161 0 0 Z " fill="#ED6969" transform="translate(88,85)"/>
<path d="M0 0 C0.89203125 0.01804687 1.7840625 0.03609375 2.703125 0.0546875 C3.71632812 0.08949219 3.71632812 0.08949219 4.75 0.125 C1.18238708 2.02951517 -2.51902587 3.42036281 -6.3125 4.8125 C-7.54097656 5.27011719 -8.76945313 5.72773437 -10.03515625 6.19921875 C-13.25 7.125 -13.25 7.125 -16.25 6.125 C-16.25 5.465 -16.25 4.805 -16.25 4.125 C-14.64125 3.691875 -14.64125 3.691875 -13 3.25 C-9.47157611 2.33816825 -9.47157611 2.33816825 -7.34375 1.0625 C-4.75664578 -0.09590487 -2.82099394 -0.07423668 0 0 Z " fill="#EB5A5A" transform="translate(203.25,66.875)"/>
<path d="M0 0 C1.32 0.66 2.64 1.32 4 2 C3.38692869 14.07116272 3.38692869 14.07116272 0 18 C-0.66 18 -1.32 18 -2 18 C-2.6875 16.1875 -2.6875 16.1875 -3 14 C-1.6875 12.25 -1.6875 12.25 0 11 C0.66 11 1.32 11 2 11 C2 9.02 2 7.04 2 5 C0.68 4.67 -0.64 4.34 -2 4 C-2 3.34 -2 2.68 -2 2 C-1.34 2 -0.68 2 0 2 C0 1.34 0 0.68 0 0 Z " fill="#F93236" transform="translate(325,46)"/>
<path d="M0 0 C0.96516243 3.00272755 1.22393475 5.04215769 0 8 C-0.99 8.33 -1.98 8.66 -3 9 C-4.01187895 10.65948148 -5.0126546 12.32580562 -6 14 C-6.66 14 -7.32 14 -8 14 C-8 14.66 -8 15.32 -8 16 C-8.66 16 -9.32 16 -10 16 C-8.66749209 12.4124787 -7.169283 9.1635377 -5 6 C-4.34 6 -3.68 6 -3 6 C-2.690625 5.195625 -2.38125 4.39125 -2.0625 3.5625 C-1 1 -1 1 0 0 Z " fill="#8D8F8C" transform="translate(247,277)"/>
<path d="M0 0 C0.99 0 1.98 0 3 0 C2.74609375 1.859375 2.74609375 1.859375 2 4 C0.22265625 5.265625 0.22265625 5.265625 -1.9375 6.25 C-3.00291016 6.75273437 -3.00291016 6.75273437 -4.08984375 7.265625 C-6 8 -6 8 -8 8 C-8.33 6.35 -8.66 4.7 -9 3 C-6.3260876 2.10869587 -3.76276177 1.52268466 -1 1 C-1 1.66 -1 2.32 -1 3 C-0.34 3 0.32 3 1 3 C0.67 2.01 0.34 1.02 0 0 Z " fill="#EF4242" transform="translate(194,303)"/>
<path d="M0 0 C-0.33 0.66 -0.66 1.32 -1 2 C-0.34 2.33 0.32 2.66 1 3 C-0.57067171 4.80627247 -1.79299586 5.90943569 -4 6.875 C-6 7 -6 7 -7.75 5.5625 C-8.1625 5.046875 -8.575 4.53125 -9 4 C-8.3125 2.0625 -8.3125 2.0625 -7 0 C-4.12060581 -0.93580311 -2.74490212 -1.37245106 0 0 Z " fill="#F34040" transform="translate(196,33)"/>
<path d="M0 0 C0.66 0.33 1.32 0.66 2 1 C2 1.99 2 2.98 2 4 C1.34 4 0.68 4 0 4 C0 5.98 0 7.96 0 10 C-2.31 9.34 -4.62 8.68 -7 8 C-7 8.66 -7 9.32 -7 10 C-7.99 9.67 -8.98 9.34 -10 9 C-9.34 9 -8.68 9 -8 9 C-7.67 8.01 -7.34 7.02 -7 6 C-5.37109375 4.39453125 -5.37109375 4.39453125 -3.4375 2.8125 C-2.79683594 2.28269531 -2.15617187 1.75289063 -1.49609375 1.20703125 C-1.00238281 0.80871094 -0.50867188 0.41039062 0 0 Z " fill="#868686" transform="translate(398,358)"/>
<path d="M0 0 C1.32 0.33 2.64 0.66 4 1 C4 1.66 4 2.32 4 3 C3.34 3 2.68 3 2 3 C2 3.66 2 4.32 2 5 C-3.41176471 9 -3.41176471 9 -6 9 C-6 9.66 -6 10.32 -6 11 C-6.66 11 -7.32 11 -8 11 C-8.33 11.66 -8.66 12.32 -9 13 C-8.875 10.75 -8.875 10.75 -8 8 C-6.03277992 6.61876037 -4.03131672 5.28511874 -2 4 C-0.61131484 1.89960669 -0.61131484 1.89960669 0 0 Z " fill="#868686" transform="translate(342,234)"/>
<path d="M0 0 C-11.53846154 10 -11.53846154 10 -17 10 C-16.6875 8.125 -16.6875 8.125 -16 6 C-12.77208445 3.8480563 -11.71599191 3.79913557 -8 4 C-8 3.01 -8 2.02 -8 1 C-5.29120665 -0.35439668 -2.99066732 -0.06501451 0 0 Z " fill="#EA5B5C" transform="translate(157,89)"/>
<path d="M0 0 C6.75 -0.125 6.75 -0.125 9 1 C9 1.66 9 2.32 9 3 C8.01 3 7.02 3 6 3 C6 3.99 6 4.98 6 6 C3.29120665 7.35439668 0.99066732 7.06501451 -2 7 C-2 6.34 -2 5.68 -2 5 C-0.68 4.34 0.64 3.68 2 3 C1.34 2.67 0.68 2.34 0 2 C0 1.34 0 0.68 0 0 Z " fill="#F93331" transform="translate(154,82)"/>
<path d="M0 0 C-4.59811646 3.41911224 -9.32291603 5.89554912 -15 7 C-17.2734375 6.57421875 -17.2734375 6.57421875 -19 6 C-19 5.34 -19 4.68 -19 4 C-16.03 4 -13.06 4 -10 4 C-10 3.34 -10 2.68 -10 2 C-9.01 2 -8.02 2 -7 2 C-7 1.34 -7 0.68 -7 0 C-3.98968256 -0.93423645 -3.13349732 -1.04449911 0 0 Z " fill="#E95A5A" transform="translate(323,65)"/>
<path d="M0 0 C0.99 0.33 1.98 0.66 3 1 C2.01 2.98 1.02 4.96 0 7 C-1.32 6.67 -2.64 6.34 -4 6 C-3.67 6.99 -3.34 7.98 -3 9 C-3.66 9 -4.32 9 -5 9 C-5.33 9.66 -5.66 10.32 -6 11 C-7.32 10.34 -8.64 9.68 -10 9 C-6.7 6.03 -3.4 3.06 0 0 Z " fill="#808080" transform="translate(426,231)"/>
<path d="M0 0 C0.33 0 0.66 0 1 0 C0.938125 0.94875 0.87625 1.8975 0.8125 2.875 C0.874375 3.90625 0.93625 4.9375 1 6 C1.99 6.66 2.98 7.32 4 8 C3.01 8 2.02 8 1 8 C0.67 9.98 0.34 11.96 0 14 C-2.475 13.01 -2.475 13.01 -5 12 C-3.35 8.04 -1.7 4.08 0 0 Z " fill="#878787" transform="translate(219,322)"/>
<path d="M0 0 C0.33 0 0.66 0 1 0 C1.59720137 5.82271337 -0.471757 9.9209404 -3 15 C-3.99 15 -4.98 15 -6 15 C-4.64475824 9.57903298 -2.63365987 4.9221313 0 0 Z " fill="#EC5C5E" transform="translate(66,111)"/>
<path d="M0 0 C-5.40303965 4.67289916 -10.04769059 4.44534366 -17 4 C-17 3.34 -17 2.68 -17 2 C-14.73139163 1.4695592 -12.46001511 0.95094566 -10.1875 0.4375 C-8.29064453 0.00244141 -8.29064453 0.00244141 -6.35546875 -0.44140625 C-3 -1 -3 -1 0 0 Z " fill="#E85E5C" transform="translate(138,283)"/>
<path d="M0 0 C2.97 0.495 2.97 0.495 6 1 C4.41455592 5.28069903 1.5312417 7.29521912 -2 10 C-2.33 10 -2.66 10 -3 10 C-3 8.35 -3 6.7 -3 5 C-1.68 5 -0.36 5 1 5 C0.67 3.35 0.34 1.7 0 0 Z " fill="#EF5554" transform="translate(230,278)"/>
<path d="M0 0 C2.09350689 3.4019487 2.17942163 6.05272412 2 10 C-1 11 -1 11 -3.1875 10.0625 C-3.785625 9.711875 -4.38375 9.36125 -5 9 C-3.7508258 5.54074837 -2.32472205 2.85306797 0 0 Z " fill="#7B7D7B" transform="translate(253,269)"/>
<path d="M0 0 C0.33 0 0.66 0 1 0 C1.66 2.64 2.32 5.28 3 8 C2.01 8 1.02 8 0 8 C0.33 9.65 0.66 11.3 1 13 C2.32 12.67 3.64 12.34 5 12 C5 12.66 5 13.32 5 14 C4.34 14 3.68 14 3 14 C2.34 15.65 1.68 17.3 1 19 C-1.23177054 15.65234419 -1.24633323 14.52938715 -1.1875 10.625 C-1.18105469 9.68914062 -1.17460938 8.75328125 -1.16796875 7.7890625 C-1.00628217 5.10431317 -0.5953259 2.61943397 0 0 Z " fill="#EF4947" transform="translate(59,126)"/>
<path d="M0 0 C3.78260126 0.90744222 7.51152256 1.98941851 11.25 3.0625 C12.51328125 3.42472656 13.7765625 3.78695313 15.078125 4.16015625 C16.04234375 4.43730469 17.0065625 4.71445312 18 5 C18 5.33 18 5.66 18 6 C17.05125 5.979375 16.1025 5.95875 15.125 5.9375 C12.09333717 5.77448174 12.09333717 5.77448174 10 7 C8.0546875 6.44140625 8.0546875 6.44140625 5.875 5.5625 C5.15054688 5.27503906 4.42609375 4.98757813 3.6796875 4.69140625 C3.12539063 4.46324219 2.57109375 4.23507812 2 4 C2 3.01 2 2.02 2 1 C1.34 0.67 0.68 0.34 0 0 Z " fill="#EF5657" transform="translate(40,280)"/>
<path d="M0 0 C0.66 0.33 1.32 0.66 2 1 C1.5 3.3125 1.5 3.3125 0 6 C-2.5690412 7.34219295 -5.21813439 8.20425705 -8 9 C-8.99 8.01 -9.98 7.02 -11 6 C-10.28972656 5.65066406 -9.57945312 5.30132812 -8.84765625 4.94140625 C-7.92855469 4.48636719 -7.00945312 4.03132813 -6.0625 3.5625 C-4.68771484 2.88380859 -4.68771484 2.88380859 -3.28515625 2.19140625 C-1.09471096 1.19474606 -1.09471096 1.19474606 0 0 Z " fill="#898989" transform="translate(399,253)"/>
<path d="M0 0 C5.6143991 1.56448671 10.86810338 3.16395187 16 6 C16 6.33 16 6.66 16 7 C14.33388095 7.042721 12.66617115 7.04063832 11 7 C10.67 6.67 10.34 6.34 10 6 C8.48834346 5.60851239 6.96530368 5.26027543 5.4375 4.9375 C4.61121094 4.76089844 3.78492188 4.58429688 2.93359375 4.40234375 C2.29550781 4.26957031 1.65742188 4.13679687 1 4 C0.67 2.68 0.34 1.36 0 0 Z " fill="#EF5A5F" transform="translate(201,176)"/>
<path d="M0 0 C-1.98 3.96 -3.96 7.92 -6 12 C-6.66 12 -7.32 12 -8 12 C-7.4740625 10.329375 -7.4740625 10.329375 -6.9375 8.625 C-5.62760669 5.19735524 -5.62760669 5.19735524 -7 3 C-6.67 2.01 -6.34 1.02 -6 0 C-3.42525708 -0.99667468 -2.51072708 -1.25536354 0 0 Z " fill="#808080" transform="translate(257,341)"/>
<path d="M0 0 C6.30367803 0.58367389 11.98660063 2.04071619 18 4 C16.02 4.99 16.02 4.99 14 6 C13.67 5.67 13.34 5.34 13 5 C11.04875695 4.76849659 9.09731247 4.53846103 7.14453125 4.3203125 C4.2953185 3.89474703 1.69109834 3.00916188 -1 2 C-0.67 1.34 -0.34 0.68 0 0 Z " fill="#EA5F5A" transform="translate(177,169)"/>
<path d="M0 0 C1.32 0.66 2.64 1.32 4 2 C-5.22551253 6.77676538 -5.22551253 6.77676538 -11 5 C-11 4.34 -11 3.68 -11 3 C-8.24921116 2.08307039 -6.64051087 1.89113917 -3.8125 1.9375 C-1.9253125 1.9684375 -1.9253125 1.9684375 0 2 C0 1.34 0 0.68 0 0 Z " fill="#EE5351" transform="translate(184,73)"/>
<path d="M0 0 C6.27 0 12.54 0 19 0 C18.67 0.99 18.34 1.98 18 3 C18 2.34 18 1.68 18 1 C17.05898437 1.144375 16.11796875 1.28875 15.1484375 1.4375 C13.90320313 1.623125 12.65796875 1.80875 11.375 2 C10.14523438 2.185625 8.91546875 2.37125 7.6484375 2.5625 C4.3833973 2.95402516 1.28287549 3.08080924 -2 3 C-1.34 2.67 -0.68 2.34 0 2 C0 1.34 0 0.68 0 0 Z " fill="#E86C6A" transform="translate(235,57)"/>
<path d="M0 0 C2.875 0.1875 2.875 0.1875 6 1 C8.24095934 4.56516258 8.19206739 7.87055112 8 12 C7.67 12 7.34 12 7 12 C6.67 10.35 6.34 8.7 6 7 C5.01 6.67 4.02 6.34 3 6 C3 5.34 3 4.68 3 4 C2.34 4 1.68 4 1 4 C0.67 2.68 0.34 1.36 0 0 Z " fill="#878787" transform="translate(415,339)"/>
<path d="M0 0 C3.44428265 1.44781793 5.36130962 3.27694609 7.75 6.125 C8.36359375 6.84945312 8.9771875 7.57390625 9.609375 8.3203125 C10.29773438 9.15175781 10.29773438 9.15175781 11 10 C10.34 10.66 9.68 11.32 9 12 C9 11.34 9 10.68 9 10 C8.01 10 7.02 10 6 10 C5.67 8.35 5.34 6.7 5 5 C3.68 5 2.36 5 1 5 C0.67 3.35 0.34 1.7 0 0 Z " fill="#EB6266" transform="translate(239,197)"/>
<path d="M0 0 C0.66 1.32 1.32 2.64 2 4 C1.01 5.32 0.02 6.64 -1 8 C-1 6.02 -1 4.04 -1 2 C-2.0725 2.350625 -3.145 2.70125 -4.25 3.0625 C-8.92307692 4.23076923 -8.92307692 4.23076923 -12 3 C-7.77050005 0.58314288 -4.87664009 -0.34833144 0 0 Z " fill="#E4686F" transform="translate(35,264)"/>
<path d="M0 0 C1.48285242 0.95262034 2.96118201 1.91228405 4.4375 2.875 C5.67306641 3.67550781 5.67306641 3.67550781 6.93359375 4.4921875 C9 6 9 6 10 8 C7.36 8 4.72 8 2 8 C0 2.25 0 2.25 0 0 Z " fill="#ED5557" transform="translate(105,142)"/>
<path d="M0 0 C2 0 2 0 4.5625 2.375 C7 5 7 5 8 7 C5.36 7.33 2.72 7.66 0 8 C-0.38063221 5.6739143 -0.71269945 3.33944736 -1 1 C-0.67 0.67 -0.34 0.34 0 0 Z " fill="#828282" transform="translate(243,422)"/>
<path d="M0 0 C2.64 0.33 5.28 0.66 8 1 C8 1.33 8 1.66 8 2 C2.35199888 3.8417395 -3.08507728 4.54775239 -9 5 C-8.67 4.01 -8.34 3.02 -8 2 C-5.36 2 -2.72 2 0 2 C0 1.34 0 0.68 0 0 Z " fill="#E45C59" transform="translate(136,323)"/>
<path d="M0 0 C0.99 0.33 1.98 0.66 3 1 C-0.02295271 4.25548753 -3.20462309 6.68977058 -7 9 C-7.66 9 -8.32 9 -9 9 C-9 8.01 -9 7.02 -9 6 C-7.68 6 -6.36 6 -5 6 C-4.67 4.35 -4.34 2.7 -4 1 C-2.68 1.33 -1.36 1.66 0 2 C0 1.34 0 0.68 0 0 Z " fill="#8B8B8B" transform="translate(430,275)"/>
<path d="M0 0 C6.80203375 -0.37634203 11.75690073 0.22528921 18 3 C18 3.66 18 4.32 18 5 C11.9490696 3.83445193 5.96533774 2.54656904 0 1 C0 0.67 0 0.34 0 0 Z " fill="#E75859" transform="translate(160,207)"/>
<path d="M0 0 C0.33 0.66 0.66 1.32 1 2 C4.3 1.67 7.6 1.34 11 1 C11 1.99 11 2.98 11 4 C6.38 4 1.76 4 -3 4 C-2.67 3.01 -2.34 2.02 -2 1 C-1.34 0.67 -0.68 0.34 0 0 Z " fill="#999999" transform="translate(388,291)"/>
<path d="M0 0 C1 2 1 2 0.1875 4.5625 C-1 7 -1 7 -3 8 C-3.91485573 10.80478195 -3.91485573 10.80478195 -4.625 14.0625 C-4.88539062 15.16722656 -5.14578125 16.27195312 -5.4140625 17.41015625 C-5.60742188 18.26480469 -5.80078125 19.11945313 -6 20 C-7.52004868 15.43985397 -6.42055055 11.52117531 -5 7 C-3.52626964 4.39333942 -1.91833725 2.32219772 0 0 Z " fill="#E97C80" transform="translate(14,273)"/>
<path d="M0 0 C3.465 1.485 3.465 1.485 7 3 C6.1875 4.9375 6.1875 4.9375 5 7 C4.01 7.33 3.02 7.66 2 8 C0.4375 6.8125 0.4375 6.8125 -1 5 C-0.6875 2.3125 -0.6875 2.3125 0 0 Z " fill="#F24C4A" transform="translate(217,183)"/>
<path d="M0 0 C6.93 0.33 13.86 0.66 21 1 C21 1.33 21 1.66 21 2 C10.11 2.495 10.11 2.495 -1 3 C-0.67 2.01 -0.34 1.02 0 0 Z " fill="#EE3537" transform="translate(106,326)"/>
<path d="M0 0 C1.32 0 2.64 0 4 0 C4.33 1.65 4.66 3.3 5 5 C6.65 5 8.3 5 10 5 C10 6.65 10 8.3 10 10 C6.54804233 8.5741914 4.8985744 6.90253666 2.75 3.875 C1.96882812 2.78832031 1.96882812 2.78832031 1.171875 1.6796875 C0.78515625 1.12539063 0.3984375 0.57109375 0 0 Z " fill="#EA6966" transform="translate(13,309)"/>
<path d="M0 0 C0 0.66 0 1.32 0 2 C0.66 2.33 1.32 2.66 2 3 C0.56666979 3.39063507 -0.87192679 3.76198474 -2.3125 4.125 C-3.51326172 4.43824219 -3.51326172 4.43824219 -4.73828125 4.7578125 C-7 5 -7 5 -10 3 C-4 0 -4 0 0 0 Z " fill="#818181" transform="translate(406,289)"/>
<path d="M0 0 C0.99 0 1.98 0 3 0 C3.2475 0.9075 3.495 1.815 3.75 2.75 C5.03981342 6.10351489 6.31971042 7.67708236 9 10 C8.01 10.33 7.02 10.66 6 11 C5.34 9.68 4.68 8.36 4 7 C3.01 7 2.02 7 1 7 C0.34 5.02 -0.32 3.04 -1 1 C-0.67 0.67 -0.34 0.34 0 0 Z " fill="#EE4A4E" transform="translate(31,270)"/>
<path d="M0 0 C0 1.32 0 2.64 0 4 C0.66 4.33 1.32 4.66 2 5 C0.68 5 -0.64 5 -2 5 C-2.33 4.67 -2.66 4.34 -3 4 C-3.33 5.32 -3.66 6.64 -4 8 C-4.99 8 -5.98 8 -7 8 C-4.73913043 0 -4.73913043 0 0 0 Z " fill="#8F8F8F" transform="translate(375,257)"/>
<path d="M0 0 C0.99 0 1.98 0 3 0 C2.65120368 3.25543229 1.97866739 4.01873107 -0.5625 6.25 C-1.366875 6.8275 -2.17125 7.405 -3 8 C-3.66 7.67 -4.32 7.34 -5 7 C-5 6.01 -5 5.02 -5 4 C-4.34 4 -3.68 4 -3 4 C-2.67 3.34 -2.34 2.68 -2 2 C-1.34 1.34 -0.68 0.68 0 0 Z " fill="#8E8E8E" transform="translate(438,268)"/>
<path d="M0 0 C0.66 0.66 1.32 1.32 2 2 C1.96712417 4.72869407 1.43602229 7.2966618 1 10 C-0.32 10.33 -1.64 10.66 -3 11 C-2.01 8.36 -1.02 5.72 0 3 C-1.65 3 -3.3 3 -5 3 C-4 1 -4 1 -2.0625 0.25 C-1.381875 0.1675 -0.70125 0.085 0 0 Z " fill="#EF393A" transform="translate(254,54)"/>
<path d="M0 0 C0.99 0.99 1.98 1.98 3 3 C1.7508258 6.45925163 0.32472205 9.14693203 -2 12 C-2.66 11.67 -3.32 11.34 -4 11 C-3.67 9.35 -3.34 7.7 -3 6 C-2.01 6 -1.02 6 0 6 C0 4.02 0 2.04 0 0 Z " fill="#F06B6B" transform="translate(247,261)"/>
<path d="M0 0 C2 3 2 3 1.625 5.1875 C1.41875 5.785625 1.2125 6.38375 1 7 C-0.65 7.33 -2.3 7.66 -4 8 C-4 8.66 -4 9.32 -4 10 C-4.66 9.67 -5.32 9.34 -6 9 C-5.34 7.68 -4.68 6.36 -4 5 C-3.34 5 -2.68 5 -2 5 C-1.34 3.35 -0.68 1.7 0 0 Z " fill="#EC5156" transform="translate(214,239)"/>
<path d="M0 0 C0.96003573 2.8801072 1.07845802 4.58599883 1 7.5625 C0.87044355 10.91281982 0.87044355 10.91281982 2 14 C1.01 13.67 0.02 13.34 -1 13 C-2.21693876 10.56612247 -2.31959896 8.58161154 -2.5625 5.875 C-2.64628906 4.96492187 -2.73007813 4.05484375 -2.81640625 3.1171875 C-2.87699219 2.41851562 -2.93757813 1.71984375 -3 1 C-2.01 0.67 -1.02 0.34 0 0 Z " fill="#E85C5E" transform="translate(103,128)"/>
<path d="M0 0 C0.66 0 1.32 0 2 0 C1.125 5.875 1.125 5.875 0 7 C-1.66617115 7.04063832 -3.33388095 7.042721 -5 7 C-3.47793991 4.37098712 -2.15634036 2.15634036 0 0 Z " fill="#EF3F41" transform="translate(93,81)"/>
<path d="M0 0 C3.81684226 1.55500981 6.19195732 4.03595495 9 7 C8.67 7.99 8.34 8.98 8 10 C7.67 8.68 7.34 7.36 7 6 C6.21625 5.87625 5.4325 5.7525 4.625 5.625 C2 5 2 5 0 3 C0 2.01 0 1.02 0 0 Z " fill="#EC6366" transform="translate(321,30)"/>
<path d="M0 0 C0.33 0.99 0.66 1.98 1 3 C-0.4375 5.1875 -0.4375 5.1875 -2 7 C-2.33 6.67 -2.66 6.34 -3 6 C-3.99 6.66 -4.98 7.32 -6 8 C-6.99 8 -7.98 8 -9 8 C-9 7.34 -9 6.68 -9 6 C-7.03125 4.4921875 -7.03125 4.4921875 -4.5 2.875 C-3.6646875 2.33617187 -2.829375 1.79734375 -1.96875 1.2421875 C-1.3190625 0.83226562 -0.669375 0.42234375 0 0 Z " fill="#8F8F8F" transform="translate(352,395)"/>
<path d="M0 0 C0 1.66666667 0 3.33333333 0 5 C-0.66 5 -1.32 5 -2 5 C-2.33 5.66 -2.66 6.32 -3 7 C-4.65 5.68 -6.3 4.36 -8 3 C-5.36 2.01 -2.72 1.02 0 0 Z " fill="#868686" transform="translate(389,166)"/>
<path d="M0 0 C0.99 0 1.98 0 3 0 C3.33 1.32 3.66 2.64 4 4 C3.01 4.495 3.01 4.495 2 5 C1.67 5.66 1.34 6.32 1 7 C0.34 7 -0.32 7 -1 7 C-1 6.34 -1 5.68 -1 5 C-2.32 4.67 -3.64 4.34 -5 4 C-4.360625 3.71125 -3.72125 3.4225 -3.0625 3.125 C-0.84793921 2.17176549 -0.84793921 2.17176549 0 0 Z " fill="#6F6F6F" transform="translate(347,400)"/>
<path d="M0 0 C0.99 0.33 1.98 0.66 3 1 C4.39439664 1.06665376 5.79169875 1.08538199 7.1875 1.0625 C8.445625 1.041875 9.70375 1.02125 11 1 C10.67 1.66 10.34 2.32 10 3 C7.71484375 3.4140625 7.71484375 3.4140625 4.9375 3.625 C4.01839844 3.69976562 3.09929687 3.77453125 2.15234375 3.8515625 C1.44207031 3.90054687 0.73179687 3.94953125 0 4 C0 2.68 0 1.36 0 0 Z " fill="#EC5351" transform="translate(167,313)"/>
<path d="M0 0 C1.65 0.33 3.3 0.66 5 1 C2.11912454 3.40072955 -0.56404834 5.47291037 -4 7 C-4.66 6.34 -5.32 5.68 -6 5 C-5.34 5 -4.68 5 -4 5 C-4 4.34 -4 3.68 -4 3 C-2.68 3 -1.36 3 0 3 C0 2.01 0 1.02 0 0 Z " fill="#939393" transform="translate(357,435)"/>
<path d="M0 0 C3.37462715 0.54723683 5.08235 1.0549 8 3 C3.545 4.485 3.545 4.485 -1 6 C-0.67 4.02 -0.34 2.04 0 0 Z " fill="#8F8F8F" transform="translate(393,201)"/>
<path d="M0 0 C1.65 0 3.3 0 5 0 C5.0825 0.61875 5.165 1.2375 5.25 1.875 C5.80583476 4.16088794 5.80583476 4.16088794 7.9375 5.1875 C8.618125 5.455625 9.29875 5.72375 10 6 C10.66 6.33 11.32 6.66 12 7 C11.67 7.66 11.34 8.32 11 9 C9.16384919 7.69144447 7.33114211 6.37805538 5.5 5.0625 C4.4790625 4.33160156 3.458125 3.60070312 2.40625 2.84765625 C1.6121875 2.23792969 0.818125 1.62820312 0 1 C0 0.67 0 0.34 0 0 Z " fill="#E86E6D" transform="translate(71,173)"/>
<path d="M0 0 C0 0.66 0 1.32 0 2 C-0.66 2 -1.32 2 -2 2 C-2 2.99 -2 3.98 -2 5 C-5.3 5.33 -8.6 5.66 -12 6 C-4 0 -4 0 0 0 Z " fill="#ED6A6C" transform="translate(139,54)"/>
<path d="M0 0 C0.33 0.66 0.66 1.32 1 2 C-0.26839526 2.50615298 -1.53983102 3.00469099 -2.8125 3.5 C-3.87404297 3.91765625 -3.87404297 3.91765625 -4.95703125 4.34375 C-7 5 -7 5 -10 5 C-10.66 4.34 -11.32 3.68 -12 3 C-8.04 2.01 -4.08 1.02 0 0 Z " fill="#EB5A5B" transform="translate(209,28)"/>
<path d="M0 0 C0.99 0.66 1.98 1.32 3 2 C2.01 3.485 2.01 3.485 1 5 C1.33 5.66 1.66 6.32 2 7 C0.35 7.33 -1.3 7.66 -3 8 C-2.45276317 4.62537285 -1.9451 2.91765 0 0 Z " fill="#8D8B8B" transform="translate(230,302)"/>
<path d="M0 0 C0.33 0.66 0.66 1.32 1 2 C0.00390625 4.6015625 0.00390625 4.6015625 -1.4375 7.625 C-1.91058594 8.62789063 -2.38367188 9.63078125 -2.87109375 10.6640625 C-3.24363281 11.43492187 -3.61617187 12.20578125 -4 13 C-4.33 13 -4.66 13 -5 13 C-5 11.35 -5 9.7 -5 8 C-4.34 8 -3.68 8 -3 8 C-3.0928125 6.8553125 -3.0928125 6.8553125 -3.1875 5.6875 C-3 3 -3 3 -1.5 1.1875 C-1.005 0.795625 -0.51 0.40375 0 0 Z " fill="#E76261" transform="translate(256,250)"/>
<path d="M0 0 C1.32 0 2.64 0 4 0 C4 0.66 4 1.32 4 2 C4.99 2.33 5.98 2.66 7 3 C6.67 4.65 6.34 6.3 6 8 C5.34 7.67 4.68 7.34 4 7 C4 6.34 4 5.68 4 5 C3.34 5 2.68 5 2 5 C1.34 3.35 0.68 1.7 0 0 Z " fill="#EC5D5B" transform="translate(65,165)"/>
<path d="M0 0 C0.99 0.33 1.98 0.66 3 1 C3 1.66 3 2.32 3 3 C1.35 3.66 -0.3 4.32 -2 5 C-2 5.66 -2 6.32 -2 7 C-3.32 7.33 -4.64 7.66 -6 8 C-5.67 6.68 -5.34 5.36 -5 4 C-4.01 4 -3.02 4 -2 4 C-2 3.34 -2 2.68 -2 2 C-1.34 2 -0.68 2 0 2 C0 1.34 0 0.68 0 0 Z " fill="#EA6166" transform="translate(124,107)"/>
<path d="M0 0 C0.66 0.66 1.32 1.32 2 2 C3.31747324 2.69748583 4.64914193 3.36959957 6 4 C5 5 5 5 2.93359375 5.09765625 C2.10988281 5.08605469 1.28617188 5.07445313 0.4375 5.0625 C-0.38878906 5.05347656 -1.21507812 5.04445313 -2.06640625 5.03515625 C-2.70449219 5.02355469 -3.34257812 5.01195313 -4 5 C-4 4.34 -4 3.68 -4 3 C-2.68 2.67 -1.36 2.34 0 2 C0 1.34 0 0.68 0 0 Z " fill="#F63E3A" transform="translate(134,96)"/>
<path d="M0 0 C3.63 0 7.26 0 11 0 C10.01 1.485 10.01 1.485 9 3 C5.7 2.67 2.4 2.34 -1 2 C-0.67 1.34 -0.34 0.68 0 0 Z " fill="#EB3737" transform="translate(235,23)"/>
<path d="M0 0 C0.66 0.33 1.32 0.66 2 1 C-0.475 5.455 -0.475 5.455 -3 10 C-3.66 8.68 -4.32 7.36 -5 6 C-3.67172689 3.14421282 -2.85356058 1.42678029 0 0 Z " fill="#979797" transform="translate(263,326)"/>
<path d="M0 0 C2.69082872 0.17635452 5.32851446 0.61835921 8 1 C5.31158141 3.25245881 3.35358125 4.88213958 0 6 C0.33 4.68 0.66 3.36 1 2 C0.34 1.67 -0.32 1.34 -1 1 C-0.67 0.67 -0.34 0.34 0 0 Z " fill="#EF5758" transform="translate(218,288)"/>
<path d="M0 0 C0.66 0 1.32 0 2 0 C2 0.66 2 1.32 2 2 C1.34 2 0.68 2 0 2 C-0.33 2.99 -0.66 3.98 -1 5 C-1.66 5 -2.32 5 -3 5 C-3 5.66 -3 6.32 -3 7 C-3.66 7 -4.32 7 -5 7 C-5.33 5.35 -5.66 3.7 -6 2 C-4.7934375 1.7834375 -4.7934375 1.7834375 -3.5625 1.5625 C-1.07896294 1.25864751 -1.07896294 1.25864751 0 0 Z " fill="#8C8C8C" transform="translate(319,256)"/>
<path d="M0 0 C0.66 0.33 1.32 0.66 2 1 C0.74874616 4.75376152 -0.5652404 5.24073289 -4 7 C-4.66 7 -5.32 7 -6 7 C-6.33 7.66 -6.66 8.32 -7 9 C-7.66 8.34 -8.32 7.68 -9 7 C-7.87926138 6.16094435 -6.75325453 5.32892169 -5.625 4.5 C-4.99851562 4.0359375 -4.37203125 3.571875 -3.7265625 3.09375 C-2 2 -2 2 0 2 C0 1.34 0 0.68 0 0 Z " fill="#8C8C8C" transform="translate(319,205)"/>
<path d="M0 0 C0.33 0 0.66 0 1 0 C1 1.65 1 3.3 1 5 C0.34 5 -0.32 5 -1 5 C-1.33 6.32 -1.66 7.64 -2 9 C-2.99 9 -3.98 9 -5 9 C-3.75471468 5.55151758 -2.38532951 2.80016942 0 0 Z " fill="#E9595D" transform="translate(72,102)"/>
<path d="M0 0 C2.79165192 1.50319719 3.19416071 2.49922999 4.4375 5.3125 C2.95550098 4.86340939 1.47694764 4.40293436 0 3.9375 C-0.82371094 3.68226563 -1.64742187 3.42703125 -2.49609375 3.1640625 C-4.5625 2.3125 -4.5625 2.3125 -5.5625 0.3125 C-2.5625 -0.6875 -2.5625 -0.6875 0 0 Z " fill="#919191" transform="translate(242.5625,460.6875)"/>
<path d="M0 0 C0.99 0.99 1.98 1.98 3 3 C1.02 4.32 -0.96 5.64 -3 7 C-3 6.34 -3 5.68 -3 5 C-3.66 5 -4.32 5 -5 5 C-4.67 4.01 -4.34 3.02 -4 2 C-3.01 2 -2.02 2 -1 2 C-0.67 1.34 -0.34 0.68 0 0 Z " fill="#8D8D8D" transform="translate(382,417)"/>
<path d="M0 0 C2.97 0 5.94 0 9 0 C8.01 0.495 8.01 0.495 7 1 C6.67 1.99 6.34 2.98 6 4 C5.34 4 4.68 4 4 4 C4 3.34 4 2.68 4 2 C2.35 2.33 0.7 2.66 -1 3 C-0.67 2.01 -0.34 1.02 0 0 Z " fill="#EF3F3E" transform="translate(155,276)"/>
<path d="M0 0 C2.61885488 2.36944013 4.41866551 4.83733102 6 8 C5.67 8.99 5.34 9.98 5 11 C4.34 11 3.68 11 3 11 C3 9.35 3 7.7 3 6 C2.34 6 1.68 6 1 6 C0.67 4.02 0.34 2.04 0 0 Z " fill="#EC696D" transform="translate(250,208)"/>
<path d="M0 0 C2.64 0.33 5.28 0.66 8 1 C2 5 2 5 -2 5 C-1.34 3.35 -0.68 1.7 0 0 Z " fill="#8B8B8B" transform="translate(408,195)"/>
<path d="M0 0 C4.60272162 1.77027754 7.7129243 3.18699218 11 7 C8.0625 6.625 8.0625 6.625 5 6 C4.67 5.34 4.34 4.68 4 4 C1.98330173 2.86649466 1.98330173 2.86649466 0 2 C0 1.34 0 0.68 0 0 Z " fill="#E96567" transform="translate(224,187)"/>
<path d="M0 0 C0 0.33 0 0.66 0 1 C-6.93 2.485 -6.93 2.485 -14 4 C-13.67 3.01 -13.34 2.02 -13 1 C-8.59085217 -0.10228696 -4.51617599 -0.07654536 0 0 Z " fill="#EA6567" transform="translate(229,61)"/>
<path d="M0 0 C1.65 1.65 3.3 3.3 5 5 C4.67 5.66 4.34 6.32 4 7 C3.34 7 2.68 7 2 7 C1.67 7.99 1.34 8.98 1 10 C-0.60725635 6.78548731 -0.05748185 3.56387464 0 0 Z " fill="#6E6E6E" transform="translate(202,375)"/>
<path d="M0 0 C1.485 0.99 1.485 0.99 3 2 C3.1875 4.625 3.1875 4.625 3 7 C3.66 7 4.32 7 5 7 C5.33 8.32 5.66 9.64 6 11 C5.01 10.67 4.02 10.34 3 10 C1.25327015 6.5065403 0 3.93154432 0 0 Z " fill="#E86C6F" transform="translate(8,297)"/>
<path d="M0 0 C0.82638376 2.89234315 1 4.88742431 1 8 C0.34 8 -0.32 8 -1 8 C-1 7.34 -1 6.68 -1 6 C-2.32 5.67 -3.64 5.34 -5 5 C-3.35 3.35 -1.7 1.7 0 0 Z " fill="#858585" transform="translate(296,224)"/>
<path d="M0 0 C0 3 0 3 -2 6 C-1.01 6.33 -0.02 6.66 1 7 C-2.28976808 8.09658936 -3.71303767 7.79953138 -7 7 C-4.66666667 4.66666667 -2.33333333 2.33333333 0 0 Z " fill="#8D8D8D" transform="translate(304,217)"/>
<path d="M0 0 C0.33 0.66 0.66 1.32 1 2 C3.64 2 6.28 2 9 2 C9 2.33 9 2.66 9 3 C8.41992188 3.06058594 7.83984375 3.12117187 7.2421875 3.18359375 C2.79907137 3.66016561 -1.59905423 4.21008666 -6 5 C-5.01 4.67 -4.02 4.34 -3 4 C-3 3.34 -3 2.68 -3 2 C-2.01 1.34 -1.02 0.68 0 0 Z " fill="#B7B7B7" transform="translate(432,188)"/>
<path d="M0 0 C0 2 0 2 -2.25 4.6875 C-3.1575 5.450625 -4.065 6.21375 -5 7 C-7.171875 6.64453125 -7.171875 6.64453125 -9 6 C-7.8803014 4.99406757 -6.7540588 3.9954151 -5.625 3 C-4.68527344 2.1646875 -4.68527344 2.1646875 -3.7265625 1.3125 C-2 0 -2 0 0 0 Z " fill="#EA6263" transform="translate(104,74)"/>
<path d="M0 0 C0.99 0.33 1.98 0.66 3 1 C2.01 2.98 1.02 4.96 0 7 C-0.66 7 -1.32 7 -2 7 C-2.6875 5.1875 -2.6875 5.1875 -3 3 C-1.5625 1.25 -1.5625 1.25 0 0 Z " fill="#ED5C5B" transform="translate(325,57)"/>
<path d="M0 0 C0.66 0.33 1.32 0.66 2 1 C1.835 1.598125 1.67 2.19625 1.5 2.8125 C0.8885876 5.11344336 0.8885876 5.11344336 1 8 C-1.475 7.01 -1.475 7.01 -4 6 C-2.68 4.02 -1.36 2.04 0 0 Z " fill="#919191" transform="translate(412,343)"/>
<path d="M0 0 C3.8063457 0.67170806 7.35206816 1.72746564 11 3 C8.83409519 4.31501363 7.49878708 5.03022952 4.9375 4.875 C2.44623634 3.74991319 1.46274809 2.26725953 0 0 Z " fill="#EB4E4C" transform="translate(33,323)"/>
<path d="M0 0 C2.475 0.495 2.475 0.495 5 1 C5.66 2.98 6.32 4.96 7 7 C3.17053157 5.54744301 1.87949705 3.57104439 0 0 Z M6 1 C6.99 1.495 6.99 1.495 8 2 C7.01 2.495 7.01 2.495 6 3 C6 2.34 6 1.68 6 1 Z " fill="#848484" transform="translate(368,282)"/>
<path d="M0 0 C-1.41519715 2.0343459 -2.54982123 2.90410393 -4.98046875 3.421875 C-6.98176954 3.66273952 -8.9909944 3.83532741 -11 4 C-9.71264403 1.42528807 -8.71510189 1.29583343 -6.0625 0.3125 C-5.35222656 0.04050781 -4.64195312 -0.23148437 -3.91015625 -0.51171875 C-2 -1 -2 -1 0 0 Z " fill="#E76B6C" transform="translate(170,272)"/>
<path d="M0 0 C0.66 0.33 1.32 0.66 2 1 C1.67 1.66 1.34 2.32 1 3 C0.34 3 -0.32 3 -1 3 C-1 3.66 -1 4.32 -1 5 C-3.64 5.66 -6.28 6.32 -9 7 C-7.79492039 4.58984078 -6.83672718 4.19684272 -4.5 2.9375 C-2.0882696 1.6858579 -2.0882696 1.6858579 0 0 Z " fill="#E96E6E" transform="translate(113,67)"/>
<path d="M0 0 C0.99 0.33 1.98 0.66 3 1 C3.33 3.31 3.66 5.62 4 8 C3.34 7.67 2.68 7.34 2 7 C2 6.34 2 5.68 2 5 C1.34 5 0.68 5 0 5 C0 4.34 0 3.68 0 3 C-0.66 2.67 -1.32 2.34 -2 2 C-1.34 2 -0.68 2 0 2 C0 1.34 0 0.68 0 0 Z " fill="#8B8B8B" transform="translate(220,445)"/>
<path d="M0 0 C2.60018816 3.90028225 2.15085514 7.47434569 2 12 C1.67 11.34 1.34 10.68 1 10 C0.34 9.67 -0.32 9.34 -1 9 C-0.67 8.01 -0.34 7.02 0 6 C-0.66 5.34 -1.32 4.68 -2 4 C-1.34 2.68 -0.68 1.36 0 0 Z " fill="#6C6C6C" transform="translate(237,401)"/>
<path d="M0 0 C0.99 0 1.98 0 3 0 C2.34 1.65 1.68 3.3 1 5 C0.34 5 -0.32 5 -1 5 C-1 5.66 -1 6.32 -1 7 C-1.66 7 -2.32 7 -3 7 C-1.125 2.25 -1.125 2.25 0 0 Z " fill="#858384" transform="translate(240,286)"/>
<path d="M0 0 C0 0.66 0 1.32 0 2 C-0.66 2 -1.32 2 -2 2 C-2 2.66 -2 3.32 -2 4 C-2.99 4.33 -3.98 4.66 -5 5 C-5.66 3.68 -6.32 2.36 -7 1 C-4.53721199 -0.231394 -2.7204945 -0.07159196 0 0 Z " fill="#7F7F7F" transform="translate(446,265)"/>
<path d="M0 0 C3.37503669 1.1858237 5.64722731 2.27573689 8 5 C6.1875 5.6875 6.1875 5.6875 4 6 C1.51384442 4.15840327 0.99843096 2.99529289 0 0 Z " fill="#A2A2A2" transform="translate(474,158)"/>
<path d="M0 0 C0 0.66 0 1.32 0 2 C-2.70879335 3.35439668 -5.00933268 3.06501451 -8 3 C-8 2.34 -8 1.68 -8 1 C-5.29120665 -0.35439668 -2.99066732 -0.06501451 0 0 Z " fill="#F13E3D" transform="translate(160,86)"/>
<path d="M0 0 C1.32 0 2.64 0 4 0 C4.33 1.32 4.66 2.64 5 4 C2 5 2 5 -1 4 C-0.67 2.68 -0.34 1.36 0 0 Z " fill="#EE4E4E" transform="translate(183,35)"/>
<path d="M0 0 C3.69900008 0.88776002 7.34550461 1.94581864 11 3 C11 3.33 11 3.66 11 4 C8.03 4 5.06 4 2 4 C2 3.01 2 2.02 2 1 C1.34 0.67 0.68 0.34 0 0 Z " fill="#EC7377" transform="translate(40,280)"/>
<path d="M0 0 C1.32 0.66 2.64 1.32 4 2 C4 2.99 4 3.98 4 5 C3.01 5 2.02 5 1 5 C1 5.66 1 6.32 1 7 C0.34 7 -0.32 7 -1 7 C-0.67 4.69 -0.34 2.38 0 0 Z " fill="#EB4644" transform="translate(216,232)"/>
<path d="M0 0 C0.66 0.33 1.32 0.66 2 1 C1.01 2.32 0.02 3.64 -1 5 C-2.65 4.67 -4.3 4.34 -6 4 C-3.94766315 1.7522025 -2.99332739 0.9977758 0 0 Z " fill="#8F8F8F" transform="translate(370,174)"/>
<path d="M0 0 C1.32 0 2.64 0 4 0 C4 0.99 4 1.98 4 3 C2.02 3.66 0.04 4.32 -2 5 C-2.33 4.01 -2.66 3.02 -3 2 C-2.01 2 -1.02 2 0 2 C0 1.34 0 0.68 0 0 Z " fill="#F23537" transform="translate(150,49)"/>
<path d="M0 0 C0.66 0.33 1.32 0.66 2 1 C1.67 2.65 1.34 4.3 1 6 C-0.32 5.34 -1.64 4.68 -3 4 C-3 3.34 -3 2.68 -3 2 C-2.01 1.34 -1.02 0.68 0 0 Z " fill="#838383" transform="translate(229,451)"/>
<path d="M0 0 C0.33 0.66 0.66 1.32 1 2 C-0.32 2.33 -1.64 2.66 -3 3 C-3 3.66 -3 4.32 -3 5 C-3.99 5.33 -4.98 5.66 -6 6 C-6 5.34 -6 4.68 -6 4 C-6.66 3.67 -7.32 3.34 -8 3 C-5.08235 1.0549 -3.37462715 0.54723683 0 0 Z " fill="#EE3735" transform="translate(143,281)"/>
<path d="M0 0 C0.33 0.66 0.66 1.32 1 2 C0.34 2 -0.32 2 -1 2 C-1.226875 2.639375 -1.45375 3.27875 -1.6875 3.9375 C-3 6 -3 6 -5.625 6.75 C-6.800625 6.87375 -6.800625 6.87375 -8 7 C-6.71034824 5.62437146 -5.37310707 4.29233607 -4 3 C-3.34 3 -2.68 3 -2 3 C-2 2.34 -2 1.68 -2 1 C-1.34 0.67 -0.68 0.34 0 0 Z " fill="#969696" transform="translate(410,245)"/>
<path d="M0 0 C0.33 1.32 0.66 2.64 1 4 C-0.32 4.99 -1.64 5.98 -3 7 C-3.66 6.67 -4.32 6.34 -5 6 C-3.625 4 -3.625 4 -2 2 C-1.34 2 -0.68 2 0 2 C0 1.34 0 0.68 0 0 Z " fill="#939393" transform="translate(436,220)"/>
<path d="M0 0 C0.66 0.33 1.32 0.66 2 1 C1.67 1.99 1.34 2.98 1 4 C0.01 4.33 -0.98 4.66 -2 5 C-2.99 4.01 -3.98 3.02 -5 2 C-2.625 0.9375 -2.625 0.9375 0 0 Z " fill="#7C7C7C" transform="translate(368,217)"/>
<path d="M0 0 C0 0.66 0 1.32 0 2 C-2.875 2.125 -2.875 2.125 -6 2 C-6.66 1.34 -7.32 0.68 -8 0 C-4.71023192 -1.09658936 -3.28696233 -0.79953138 0 0 Z " fill="#E73735" transform="translate(165,205)"/>
<path d="M0 0 C2.625 -0.1875 2.625 -0.1875 5 0 C5.33 0.66 5.66 1.32 6 2 C3.29120665 3.35439668 0.99066732 3.06501451 -2 3 C-1.34 2.01 -0.68 1.02 0 0 Z " fill="#6E6E6E" transform="translate(438,187)"/>
<path d="M0 0 C0.33 0.66 0.66 1.32 1 2 C2.98 2 4.96 2 7 2 C7 2.33 7 2.66 7 3 C4.03 3.66 1.06 4.32 -2 5 C-2 3.68 -2 2.36 -2 1 C-1.34 0.67 -0.68 0.34 0 0 Z " fill="#8C8C8C" transform="translate(305,458)"/>
<path d="M0 0 C0.66 0.33 1.32 0.66 2 1 C2 1.99 2 2.98 2 4 C1.34 4 0.68 4 0 4 C-0.33 4.99 -0.66 5.98 -1 7 C-1.66 5.68 -2.32 4.36 -3 3 C-2.01 2.01 -1.02 1.02 0 0 Z " fill="#939393" transform="translate(398,358)"/>
<path d="M0 0 C0.66 0 1.32 0 2 0 C1 3 1 3 -2.0625 4.6875 C-3.031875 5.120625 -4.00125 5.55375 -5 6 C-5 4.68 -5 3.36 -5 2 C-3.35 2 -1.7 2 0 2 C0 1.34 0 0.68 0 0 Z " fill="#EB6B6F" transform="translate(216,293)"/>
<path d="M0 0 C3.3 0.99 6.6 1.98 10 3 C10 3.33 10 3.66 10 4 C6.05272412 4.17942163 3.4019487 4.09350689 0 2 C0 1.34 0 0.68 0 0 Z " fill="#E96B72" transform="translate(201,176)"/>
<path d="M0 0 C4.95 0.99 4.95 0.99 10 2 C7 4 7 4 3.8125 3.625 C2.884375 3.41875 1.95625 3.2125 1 3 C0.67 2.01 0.34 1.02 0 0 Z " fill="#E86E70" transform="translate(147,160)"/>
<path d="M0 0 C0.66 0.33 1.32 0.66 2 1 C1.67 2.65 1.34 4.3 1 6 C0.01 6 -0.98 6 -2 6 C-1.49396008 3.83125748 -1.00016187 2.00032373 0 0 Z " fill="#F2646A" transform="translate(252,73)"/>
<path d="M0 0 C3.3 0.99 6.6 1.98 10 3 C10 3.33 10 3.66 10 4 C7.03 3.67 4.06 3.34 1 3 C0.67 2.01 0.34 1.02 0 0 Z " fill="#EA777A" transform="translate(311,26)"/>
</svg>
