<svg width="512" height="512" viewBox="0 0 512 512" fill="none" xmlns="http://www.w3.org/2000/svg">
  <rect width="512" height="512" fill="black"/>
  <!-- Simplified SC logo -->
  <path d="M80 380C45 360 25 330 25 290C25 250 45 220 80 200C115 180 160 170 215 170C235 170 255 172 273 176C291 180 307 186 321 194L303 230C292 224 280 219 267 216C254 213 240 211 225 211C200 211 180 215 165 223C150 231 142 243 142 259C142 269 145 277 151 283C157 289 165 294 176 298C187 302 200 306 215 310C235 316 253 323 268 330C283 337 295 346 304 357C313 368 320 381 325 396C330 411 332 428 332 447C332 487 317 518 287 540C257 562 213 573 155 573C128 573 104 570 83 564C62 558 44 549 29 537L47 501C61 511 77 519 95 525C113 531 132 534 152 534C178 534 198 529 212 519C226 509 233 495 233 477C233 467 230 459 224 453C218 447 210 442 199 438C188 434 175 430 160 426C140 420 122 413 107 406C92 399 80 390 71 379C62 368 55 355 50 340C45 325 43 308 43 289C43 249 58 218 88 196C118 174 162 163 220 163C246 163 270 166 291 172C312 178 330 187 345 199L327 235C313 225 297 217 279 211C261 205 242 202 222 202Z" fill="#dc0000"/>
  <path d="M432 380C467 360 487 330 487 290C487 250 467 220 432 200C397 180 352 170 297 170C277 170 257 172 239 176C221 180 205 186 191 194L209 230C220 224 232 219 245 216C258 213 272 211 287 211C312 211 332 215 347 223C362 231 370 243 370 259C370 269 367 277 361 283C355 289 347 294 336 298C325 302 312 306 297 310C277 316 259 323 244 330C229 337 217 346 208 357C199 368 192 381 187 396C182 411 180 428 180 447C180 487 195 518 225 540C255 562 299 573 357 573C384 573 408 570 429 564C450 558 468 549 483 537L465 501C451 511 435 519 417 525C399 531 380 534 360 534C334 534 314 529 300 519C286 509 279 495 279 477C279 467 282 459 288 453C294 447 302 442 313 438C324 434 337 430 352 426C372 420 390 413 405 406C420 399 432 390 441 379C450 368 457 355 462 340C467 325 469 308 469 289C469 249 454 218 424 196C394 174 350 163 292 163C266 163 242 166 221 172C200 178 182 187 167 199L185 235C199 225 215 217 233 211C251 205 270 202 290 202Z" fill="#6b7280"/>
</svg>
